<?xml version="1.0" encoding="UTF-8" standalone="no"?>
<!-- Created with Inkscape (http://www.inkscape.org/) -->

<svg
   xmlns:dc="http://purl.org/dc/elements/1.1/"
   xmlns:cc="http://creativecommons.org/ns#"
   xmlns:rdf="http://www.w3.org/1999/02/22-rdf-syntax-ns#"
   xmlns:svg="http://www.w3.org/2000/svg"
   xmlns="http://www.w3.org/2000/svg"
   xmlns:sodipodi="http://sodipodi.sourceforge.net/DTD/sodipodi-0.dtd"
   xmlns:inkscape="http://www.inkscape.org/namespaces/inkscape"
   width="320"
   height="620"
   id="svg2"
   version="1.1"
   inkscape:version="0.48.3.1 r9886"
   sodipodi:docname="construction.svg">
  <defs
     id="defs4" />
  <sodipodi:namedview
     id="base"
     pagecolor="#ffffff"
     bordercolor="#666666"
     borderopacity="1.0"
     inkscape:pageopacity="0.0"
     inkscape:pageshadow="2"
     inkscape:zoom="0.7"
     inkscape:cx="274.06541"
     inkscape:cy="266.53185"
     inkscape:document-units="px"
     inkscape:current-layer="layer1"
     showgrid="false"
     inkscape:window-width="1139"
     inkscape:window-height="714"
     inkscape:window-x="87"
     inkscape:window-y="26"
     inkscape:window-maximized="0" />
  <metadata
     id="metadata7">
    <rdf:RDF>
      <cc:Work
         rdf:about="">
        <dc:format>image/svg+xml</dc:format>
        <dc:type
           rdf:resource="http://purl.org/dc/dcmitype/StillImage" />
        <dc:title></dc:title>
      </cc:Work>
    </rdf:RDF>
  </metadata>
  <g
     inkscape:label="Calque 1"
     inkscape:groupmode="layer"
     id="layer1">
    <rect
       style="color:#000000;fill:#556a77;fill-opacity:1;fill-rule:nonzero;stroke:none;stroke-width:1;marker:none;visibility:visible;display:inline;overflow:visible;enable-background:accumulate"
       id="rect2985"
       width="320"
       height="620"
       x="0"
       y="0"
       ry="2.1690655" />
    <path
       style="color:#000000;fill:#dcd018;fill-opacity:0.62745098;fill-rule:nonzero;stroke:none;stroke-width:1;marker:none;visibility:visible;display:inline;overflow:visible;enable-background:accumulate"
       d="M 320 212.09375 L 0 269.96875 L 0 313.15625 L 320 255.28125 L 320 212.09375 z M 259.65625 224.65625 L 260.0625 229.5625 L 253.40625 230.71875 L 252.96875 225.8125 L 259.65625 224.65625 z M 290.65625 225.59375 C 291.4259 225.60375 292.11072 225.8669 292.6875 226.34375 C 293.4565 226.97962 293.9811 227.84176 294.28125 228.96875 C 294.58008 230.0803 294.83745 231.99017 295.0625 234.6875 L 296.875 256.3125 L 290.375 257.46875 L 288.625 236.09375 C 288.4478 233.96999 288.29127 232.66696 288.15625 232.21875 C 288.02122 231.77059 287.7196 231.61064 287.28125 231.6875 C 286.82151 231.7682 286.54108 232.06183 286.46875 232.625 C 286.39515 233.17272 286.46216 234.61221 286.65625 236.9375 L 288.40625 257.8125 L 281.9375 258.9375 L 279.34375 228.09375 L 285.9375 226.9375 L 286.0625 229.78125 C 286.43851 228.56712 286.93548 227.61375 287.5625 226.9375 C 288.1989 226.24394 288.95634 225.84318 289.84375 225.6875 C 290.12173 225.6387 290.3997 225.59055 290.65625 225.59375 z M 250.03125 229.0625 L 250.4375 233.90625 L 252.1875 233.59375 L 252.59375 238.5 L 250.84375 238.78125 L 252.25 255.3125 C 252.41942 257.34328 252.56035 258.4481 252.71875 258.65625 C 252.88782 258.86253 253.50402 258.87311 254.5625 258.6875 L 254.96875 263.65625 L 252.375 264.125 C 250.89956 264.38379 249.83252 264.49738 249.1875 264.4375 C 248.54117 264.3621 247.97165 264.0512 247.4375 263.5 C 246.90206 262.9333 246.5299 262.23849 246.34375 261.4375 C 246.1563 260.62102 245.91233 258.66317 245.65625 255.59375 L 244.34375 239.9375 L 242.96875 240.1875 L 242.53125 235.28125 L 243.9375 235.0625 L 243.53125 230.1875 L 250.03125 229.0625 z M 270.5625 229.125 C 271.58481 229.0666 272.52616 229.191 273.34375 229.53125 C 274.44325 229.96759 275.31802 230.65429 275.96875 231.5625 C 276.61946 232.47078 277.08261 233.43477 277.375 234.46875 C 277.67806 235.50091 277.91137 237.12673 278.09375 239.3125 L 278.71875 246.84375 C 278.95024 249.61863 279.02129 251.69533 278.9375 253.03125 C 278.8524 254.35168 278.56762 255.63271 278.03125 256.875 C 277.49356 258.10179 276.73029 259.06428 275.78125 259.78125 C 274.84159 260.48085 273.72048 260.93122 272.4375 261.15625 C 271.00482 261.40754 269.78182 261.40021 268.75 261.125 C 267.71688 260.83434 266.91351 260.28586 266.28125 259.46875 C 265.65837 258.63427 265.15635 257.60467 264.8125 256.34375 C 264.46735 255.06734 264.18732 253.08861 263.96875 250.46875 L 263.3125 242.5625 C 263.07324 239.69464 263.11309 237.43725 263.40625 235.75 C 263.6994 234.0628 264.34456 232.64044 265.375 231.46875 C 266.40544 230.29712 267.76796 229.55382 269.5 229.25 C 269.86351 229.1863 270.22174 229.14446 270.5625 229.125 z M 260.21875 231.4375 L 262.8125 262.28125 L 256.125 263.46875 L 253.5625 232.59375 L 260.21875 231.4375 z M 270.1875 234.65625 C 269.8026 234.72375 269.59337 234.99647 269.5 235.4375 C 269.4053 235.86308 269.39935 236.85631 269.53125 238.4375 L 270.6875 252.375 C 270.80907 253.8322 270.95919 254.76045 271.125 255.1875 C 271.28951 255.59906 271.56329 255.78439 271.9375 255.71875 C 272.32239 255.65125 272.54101 255.39244 272.625 254.96875 C 272.7197 254.5432 272.7362 253.67694 272.625 252.34375 L 271.4375 238.125 C 271.30557 236.54381 271.15123 235.5387 271 235.15625 C 270.84746 234.75835 270.57239 234.58877 270.1875 234.65625 z M 235.53125 235.3125 C 236.72223 235.3012 237.75566 235.59732 238.71875 236.21875 C 240.00285 237.04739 240.94123 238.20695 241.46875 239.71875 C 241.99625 241.2306 242.38314 243.44489 242.625 246.34375 L 236.5 247.40625 L 236.1875 243.875 C 236.08402 242.63486 235.95645 241.78471 235.78125 241.375 C 235.60474 240.94985 235.34295 240.77814 234.96875 240.84375 C 234.59454 240.90945 234.34596 241.15247 234.25 241.5625 C 234.154 241.97258 234.16875 242.83884 234.28125 244.1875 L 235.5 258.75 C 235.5918 259.85066 235.76098 260.66319 236 261.1875 C 236.23771 261.69632 236.53204 261.90939 236.90625 261.84375 C 237.34459 261.76685 237.61692 261.44359 237.71875 260.84375 C 237.83126 260.24205 237.8207 259.12797 237.6875 257.53125 L 237.40625 253.875 L 243.15625 252.875 C 243.35118 255.34172 243.42037 257.17672 243.40625 258.4375 C 243.40125 259.68093 243.18827 261.02844 242.6875 262.4375 C 242.19611 263.82919 241.4798 264.94402 240.5625 265.78125 C 239.64387 266.60299 238.46391 267.12372 237.03125 267.375 C 235.20298 267.69567 233.70667 267.49285 232.5625 266.78125 C 231.41703 266.05416 230.55359 264.92396 229.96875 263.375 C 229.3933 261.80867 229.00091 259.53866 228.75 256.53125 L 228 247.75 C 227.78142 245.13017 227.8102 243.11571 228.0625 241.71875 C 228.31479 240.32184 228.99364 238.99682 230.09375 237.75 C 231.19257 236.48774 232.58129 235.7357 234.28125 235.4375 C 234.70356 235.3634 235.13426 235.31626 235.53125 235.3125 z M 224.96875 237.625 L 227.53125 268.46875 L 220.9375 269.625 L 220.84375 267.0625 C 220.48135 268.1799 219.99389 269.04417 219.375 269.6875 C 218.76548 270.31346 218.04282 270.72498 217.1875 270.875 C 216.21456 271.04565 215.37038 270.9148 214.6875 270.53125 C 214.00462 270.1477 213.5036 269.57973 213.125 268.8125 C 212.75709 268.0434 212.46107 267.2455 212.3125 266.375 C 212.16264 265.48901 212.00242 263.71336 211.78125 261.0625 L 210.03125 240.25 L 216.53125 239.09375 L 218.25 260.09375 C 218.45047 262.49658 218.61626 263.91107 218.75 264.34375 C 218.89441 264.77456 219.2072 264.95377 219.65625 264.875 C 220.13736 264.7906 220.39076 264.51132 220.4375 264.03125 C 220.4949 263.54932 220.42974 262.0581 220.21875 259.53125 L 218.46875 238.75 L 224.96875 237.625 z M 194.875 238.71875 L 195.28125 243.59375 L 197.03125 243.28125 L 197.4375 248.15625 L 195.6875 248.46875 L 197.0625 264.96875 C 197.23191 266.99953 197.4041 268.1356 197.5625 268.34375 C 197.73157 268.55003 198.34777 268.56061 199.40625 268.375 L 199.8125 273.34375 L 197.1875 273.8125 C 195.71206 274.07129 194.64502 274.15363 194 274.09375 C 193.35367 274.01835 192.78414 273.70745 192.25 273.15625 C 191.71455 272.58955 191.3424 271.92599 191.15625 271.125 C 190.9688 270.30852 190.75608 268.35067 190.5 265.28125 L 189.1875 249.59375 L 187.78125 249.84375 L 187.375 244.96875 L 188.78125 244.71875 L 188.375 239.875 L 194.875 238.71875 z M 208.65625 239.90625 L 209.5625 250.78125 C 208.37573 250.98943 207.51715 251.37495 207 251.9375 C 206.48284 252.5001 206.2147 253.2029 206.15625 254.0625 C 206.09645 254.90663 206.18792 256.82062 206.4375 259.8125 L 207.4375 272 L 200.96875 273.15625 L 198.40625 242.28125 L 204.875 241.15625 L 204.96875 245.25 C 205.66774 242.18612 206.88498 240.38997 208.65625 239.90625 z M 180.84375 244.9375 C 181.54462 244.94406 182.17198 245.05061 182.75 245.25 C 183.78699 245.5872 184.62371 246.14556 185.21875 246.90625 C 185.82444 247.66513 186.20728 248.41518 186.375 249.125 C 186.55338 249.833 186.71441 250.94982 186.84375 252.5 L 186.96875 254.28125 L 181.21875 255.3125 L 181.09375 253.625 C 180.97476 252.19883 180.83614 251.3202 180.6875 250.96875 C 180.54825 250.59998 180.26154 250.45252 179.8125 250.53125 C 179.44898 250.59505 179.18326 250.7991 179.03125 251.1875 C 178.87794 251.56045 178.84805 252.11493 178.90625 252.8125 C 178.98515 253.75815 179.0957 254.44047 179.21875 254.875 C 179.35118 255.2922 179.66322 255.73921 180.15625 256.1875 C 180.65995 256.63396 181.66089 257.23992 183.15625 258 C 185.14919 259.00315 186.4699 260.01875 187.15625 261.09375 C 187.84256 262.16878 188.28121 263.84596 188.46875 266.09375 C 188.67826 268.6051 188.59169 270.54082 188.25 271.90625 C 187.907 273.25619 187.25025 274.36676 186.25 275.25 C 185.25911 276.11587 184.01737 276.67684 182.53125 276.9375 C 180.88474 277.22629 179.4569 277.10032 178.21875 276.5625 C 176.99129 276.02281 176.07566 275.16304 175.53125 273.96875 C 174.98684 272.77447 174.62094 270.88585 174.40625 268.3125 L 174.28125 266.8125 L 180.03125 265.8125 L 180.1875 267.78125 C 180.32588 269.43998 180.50712 270.49707 180.6875 270.96875 C 180.87857 271.43857 181.16608 271.63752 181.59375 271.5625 C 182.05348 271.4819 182.37665 271.26368 182.53125 270.90625 C 182.68455 270.53333 182.71423 269.81965 182.625 268.75 C 182.50212 267.27731 182.2975 266.36206 182.03125 266.03125 C 181.7543 265.70234 180.41922 264.83795 178 263.40625 C 175.96756 262.18985 174.67799 260.9638 174.15625 259.78125 C 173.63323 258.58323 173.30111 257.1425 173.15625 255.40625 C 172.95061 252.94144 173.02295 251.08519 173.375 249.84375 C 173.72575 248.58686 174.42136 247.54189 175.4375 246.71875 C 176.46432 245.8938 177.67176 245.34319 179.09375 245.09375 C 179.44657 245.03185 179.79616 244.993 180.125 244.96875 C 180.37163 244.95055 180.61013 244.93531 180.84375 244.9375 z M 167.03125 247.28125 C 167.8009 247.29125 168.48572 247.5544 169.0625 248.03125 C 169.8315 248.66712 170.3561 249.52926 170.65625 250.65625 C 170.95508 251.7678 171.21245 253.67767 171.4375 256.375 L 173.25 278 L 166.78125 279.125 L 165 257.78125 C 164.8228 255.65749 164.66627 254.35446 164.53125 253.90625 C 164.39622 253.45809 164.0946 253.26689 163.65625 253.34375 C 163.19651 253.42445 162.94734 253.74933 162.875 254.3125 C 162.8014 254.86022 162.83716 256.29971 163.03125 258.625 L 164.78125 279.5 L 158.3125 280.625 L 155.71875 249.78125 L 162.3125 248.625 L 162.4375 251.46875 C 162.81351 250.25462 163.34173 249.30125 163.96875 248.625 C 164.60515 247.93144 165.33134 247.49943 166.21875 247.34375 C 166.49673 247.29495 166.7747 247.27805 167.03125 247.28125 z M 146.96875 250.8125 C 147.99105 250.7541 148.90116 250.8785 149.71875 251.21875 C 150.81825 251.65509 151.69302 252.34179 152.34375 253.25 C 152.99446 254.15828 153.45761 255.12227 153.75 256.15625 C 154.05306 257.18841 154.28637 258.78298 154.46875 260.96875 L 155.125 268.53125 C 155.35649 271.30613 155.42754 273.38283 155.34375 274.71875 C 155.25865 276.03918 154.94262 277.32021 154.40625 278.5625 C 153.86856 279.78929 153.13654 280.75178 152.1875 281.46875 C 151.24784 282.16835 150.12673 282.61872 148.84375 282.84375 C 147.41107 283.09504 146.18807 283.08771 145.15625 282.8125 C 144.12313 282.52184 143.28851 281.97336 142.65625 281.15625 C 142.03337 280.32177 141.53135 279.26092 141.1875 278 C 140.84235 276.72359 140.56233 274.77611 140.34375 272.15625 L 139.6875 264.25 C 139.44824 261.38214 139.48809 259.12475 139.78125 257.4375 C 140.0744 255.7503 140.71956 254.29669 141.75 253.125 C 142.78044 251.95337 144.17421 251.24132 145.90625 250.9375 C 146.26976 250.8738 146.62798 250.83196 146.96875 250.8125 z M 130.875 253.65625 C 132.06599 253.64495 133.16191 253.94107 134.125 254.5625 C 135.4091 255.39114 136.31623 256.58195 136.84375 258.09375 C 137.37125 259.6056 137.75814 261.78864 138 264.6875 L 131.875 265.78125 L 131.59375 262.21875 C 131.49027 260.97861 131.33145 260.15971 131.15625 259.75 C 130.97974 259.32485 130.71795 259.12189 130.34375 259.1875 C 129.96954 259.2532 129.72096 259.49622 129.625 259.90625 C 129.529 260.31633 129.54375 261.21384 129.65625 262.5625 L 130.875 277.09375 C 130.9668 278.19441 131.13598 279.00694 131.375 279.53125 C 131.61271 280.04007 131.90704 280.28439 132.28125 280.21875 C 132.7196 280.14185 132.99191 279.78734 133.09375 279.1875 C 133.20626 278.5858 133.19571 277.50297 133.0625 275.90625 L 132.75 272.21875 L 138.53125 271.21875 C 138.72619 273.68547 138.82663 275.55172 138.8125 276.8125 C 138.8075 278.05593 138.53201 279.37219 138.03125 280.78125 C 137.53985 282.17294 136.85481 283.28777 135.9375 284.125 C 135.01888 284.94674 133.83891 285.46747 132.40625 285.71875 C 130.57798 286.03942 129.08167 285.86785 127.9375 285.15625 C 126.79203 284.42916 125.9286 283.26771 125.34375 281.71875 C 124.7683 280.15242 124.34465 277.88241 124.09375 274.875 L 123.375 266.09375 C 123.15643 263.47392 123.18521 261.49071 123.4375 260.09375 C 123.68979 258.69684 124.33739 257.37182 125.4375 256.125 C 126.53632 254.86274 127.95629 254.07945 129.65625 253.78125 C 130.07856 253.70715 130.478 253.66001 130.875 253.65625 z M 85.5 255.1875 L 88.625 292.84375 L 82.15625 293.96875 L 81.96875 291.75 C 81.426231 292.78889 80.801703 293.60242 80.15625 294.1875 C 79.510783 294.77258 78.842158 295.11873 78.09375 295.25 C 77.08874 295.42627 76.176091 295.224 75.375 294.59375 C 74.572614 293.94804 74.047898 293.12638 73.75 292.15625 C 73.462789 291.18425 73.190117 289.56006 73 287.28125 L 71.78125 272.84375 C 71.583369 270.47196 71.567132 268.77779 71.6875 267.75 C 71.818562 266.72039 72.219918 265.7504 72.90625 264.875 C 73.591287 263.98416 74.462916 263.46318 75.5 263.28125 C 76.301861 263.14064 77.052198 263.22895 77.75 263.53125 C 78.458483 263.8317 79.134883 264.35231 79.75 265.09375 L 79 256.34375 L 85.5 255.1875 z M 115.4375 256.28125 L 116.34375 267.125 C 115.15698 267.33318 114.32966 267.7187 113.8125 268.28125 C 113.29534 268.84385 112.99595 269.54665 112.9375 270.40625 C 112.8777 271.25038 112.96907 273.16437 113.21875 276.15625 L 114.25 288.34375 L 107.75 289.5 L 105.15625 258.625 L 111.65625 257.5 L 111.71875 261.59375 C 112.41774 258.52987 113.66623 256.76497 115.4375 256.28125 z M 146.5625 256.34375 C 146.1776 256.41125 145.96837 256.68397 145.875 257.125 C 145.7803 257.55058 145.77435 258.54381 145.90625 260.125 L 147.09375 274.0625 C 147.21531 275.5197 147.33419 276.44795 147.5 276.875 C 147.66451 277.28656 147.93829 277.47189 148.3125 277.40625 C 148.69739 277.33875 148.94726 277.07994 149.03125 276.65625 C 149.12595 276.2307 149.1112 275.36444 149 274.03125 L 147.8125 259.78125 C 147.68057 258.20006 147.52623 257.2262 147.375 256.84375 C 147.22246 256.44585 146.94739 256.27627 146.5625 256.34375 z M 96.59375 259.65625 C 97.852405 259.62715 98.961141 259.93026 99.90625 260.53125 C 101.17578 261.31526 102.14118 262.48632 102.75 264.0625 C 103.36821 265.62136 103.78162 267.88312 104.03125 270.875 L 104.375 274.96875 L 96 276.46875 L 96.53125 283.125 C 96.647645 284.5202 96.827377 285.40258 97 285.78125 C 97.172608 286.15993 97.448153 286.31939 97.84375 286.25 C 98.335555 286.1637 98.633592 285.83646 98.75 285.28125 C 98.875787 284.70868 98.878029 283.65971 98.75 282.125 L 98.40625 278.0625 L 104.5625 276.96875 L 104.75 279.25 C 104.90907 281.15677 104.92944 282.63437 104.84375 283.6875 C 104.76875 284.73877 104.48115 285.91796 103.96875 287.1875 C 103.45632 288.45705 102.7667 289.46465 101.875 290.21875 C 100.99268 290.95548 99.81753 291.43997 98.40625 291.6875 C 97.037723 291.92753 95.814372 291.85855 94.71875 291.46875 C 93.623121 291.07895 92.733306 290.4515 92.0625 289.5625 C 91.401085 288.65613 90.91786 287.62303 90.59375 286.46875 C 90.268345 285.29898 90.003913 283.54432 89.8125 281.25 L 89.0625 272.28125 C 88.83746 269.58391 88.908082 267.38837 89.28125 265.75 C 89.65313 264.09618 90.393295 262.77229 91.46875 261.75 C 92.542903 260.71227 93.826365 260.07319 95.3125 259.8125 C 95.766888 259.7328 96.174196 259.66594 96.59375 259.65625 z M 65.4375 265.125 C 66.207144 265.135 66.860728 265.3669 67.4375 265.84375 C 68.206504 266.47962 68.762347 267.37301 69.0625 268.5 C 69.361332 269.61155 69.618696 271.49017 69.84375 274.1875 L 71.65625 295.8125 L 65.15625 296.96875 L 63.375 275.59375 C 63.197804 273.46999 63.041266 272.19821 62.90625 271.75 C 62.771218 271.30184 62.469597 271.11064 62.03125 271.1875 C 61.571506 271.2682 61.322335 271.59308 61.25 272.15625 C 61.17636 272.70397 61.243493 274.11221 61.4375 276.4375 L 63.15625 297.3125 L 56.6875 298.4375 L 54.125 267.59375 L 60.6875 266.4375 L 60.8125 269.28125 C 61.18851 268.06712 61.716735 267.145 62.34375 266.46875 C 62.98015 265.77519 63.737591 265.34318 64.625 265.1875 C 64.902978 265.1388 65.180952 265.1218 65.4375 265.125 z M 96.0625 265.21875 C 95.613448 265.29755 95.35453 265.54697 95.28125 265.96875 C 95.20666 266.37508 95.261388 267.45129 95.40625 269.1875 L 95.5625 271.4375 L 97.46875 271.09375 L 97.28125 268.84375 C 97.148028 267.24706 97.000152 266.22571 96.84375 265.78125 C 96.687335 265.33684 96.42601 265.15502 96.0625 265.21875 z M 51.75 268 L 54.34375 298.875 L 47.75 300.03125 L 47.65625 297.4375 C 47.293849 298.5549 46.806396 299.45042 46.1875 300.09375 C 45.577987 300.71971 44.82407 301.09998 43.96875 301.25 C 42.995812 301.42065 42.182878 301.3211 41.5 300.9375 C 40.817116 300.55395 40.284851 299.95473 39.90625 299.1875 C 39.538338 298.4184 39.27356 297.6205 39.125 296.75 C 38.975145 295.86401 38.78366 294.08836 38.5625 291.4375 L 36.8125 270.625 L 43.3125 269.5 L 45.0625 290.46875 C 45.262961 292.87158 45.428762 294.31732 45.5625 294.75 C 45.706915 295.18081 45.988446 295.32877 46.4375 295.25 C 46.918613 295.1656 47.203259 294.88632 47.25 294.40625 C 47.30741 293.92432 47.210802 292.4331 47 289.90625 L 45.28125 269.125 L 51.75 268 z M 79.25 268.1875 C 79.16579 268.1775 79.067643 268.20135 78.96875 268.21875 C 78.583846 268.28625 78.359238 268.4941 78.25 268.875 C 78.15015 269.23858 78.149117 270.04086 78.25 271.25 L 79.5 286.34375 C 79.604754 287.59943 79.744315 288.43196 79.90625 288.8125 C 80.066877 289.17756 80.323976 289.31377 80.6875 289.25 C 81.104464 289.1769 81.365966 288.92719 81.46875 288.46875 C 81.570225 287.99482 81.54977 286.87699 81.40625 285.15625 L 80.21875 270.90625 C 80.12433 269.77462 79.983814 269.01945 79.8125 268.65625 C 79.692023 268.38248 79.502636 268.21693 79.25 268.1875 z "
       id="rect3755" />
    <path
       style="color:#000000;fill:#dcd018;fill-opacity:0.62745098;fill-rule:nonzero;stroke:none;stroke-width:1;marker:none;visibility:visible;display:inline;overflow:visible;enable-background:accumulate"
       d="M 0 106.21875 L 0 149.15625 L 320 179.25 L 320 136.3125 L 0 106.21875 z M 54.25 115 L 62.09375 115.65625 C 64.5737 115.86335 66.441934 116.22846 67.6875 116.75 C 68.945494 117.27264 69.918283 118.19261 70.625 119.53125 C 71.332508 120.85654 71.610811 122.93577 71.4375 125.75 C 71.320274 127.65299 70.95075 128.95263 70.34375 129.65625 C 69.749175 130.36095 68.626035 130.85929 66.96875 131.125 C 68.760968 131.71918 69.946754 132.53901 70.53125 133.625 C 71.116529 134.69761 71.349144 136.32012 71.21875 138.4375 L 71.03125 141.4375 C 70.895867 143.6353 70.57 145.23085 70.03125 146.25 C 69.504925 147.27019 68.702064 147.94669 67.65625 148.25 C 66.610402 148.55331 64.509118 148.5768 61.34375 148.3125 L 52.25 147.53125 L 54.25 115 z M 113.40625 119.9375 L 120.96875 120.5625 L 120.09375 134.25 L 122.9375 126.625 L 129.3125 127.15625 L 125.5625 137.53125 L 128.5625 153.90625 L 121.28125 153.3125 L 119.65625 141.5 L 118.9375 153.125 L 111.375 152.5 L 113.40625 119.9375 z M 61.75 121.21875 L 61.3125 128.46875 C 61.649792 128.48345 61.906807 128.4844 62.09375 128.5 C 62.86639 128.5645 63.388368 128.4156 63.625 128.03125 C 63.86243 127.63352 64.068629 126.46104 64.1875 124.53125 C 64.25022 123.51278 64.180945 122.79163 64.03125 122.375 C 63.882355 121.94502 63.655013 121.66242 63.375 121.53125 C 63.107423 121.40117 62.559201 121.29981 61.75 121.21875 z M 81.5 122.78125 C 81.986209 122.76795 82.498491 122.768 83.03125 122.8125 C 85.585976 123.02584 87.482927 123.69477 88.71875 124.78125 C 89.955363 125.85438 90.669519 127.08889 90.84375 128.53125 C 91.018771 129.96025 90.959035 132.90352 90.6875 137.3125 L 89.875 150.6875 L 82.53125 150.0625 L 82.6875 147.6875 C 82.167785 148.60048 81.51497 149.2977 80.75 149.71875 C 79.998301 150.12744 79.103177 150.27178 78.09375 150.1875 C 76.772761 150.0772 75.591677 149.57078 74.53125 148.6875 C 73.484107 147.79186 73.021591 146.00614 73.1875 143.3125 L 73.34375 141.125 C 73.466736 139.12823 73.838454 137.79977 74.46875 137.125 C 75.099038 136.45025 76.622612 135.70886 79 134.9375 C 81.544333 134.09929 82.89698 133.50353 83.09375 133.15625 C 83.290492 132.809 83.431478 132.08107 83.5 130.96875 C 83.58583 129.57505 83.5488 128.68211 83.375 128.25 C 83.214468 127.80557 82.886128 127.56873 82.4375 127.53125 C 81.926543 127.48865 81.615651 127.61735 81.46875 127.96875 C 81.32266 128.3068 81.185356 129.23124 81.09375 130.71875 L 80.9375 133.5 L 73.84375 132.9375 L 73.96875 131.125 C 74.095859 129.06124 74.401564 127.5134 74.90625 126.4375 C 75.424219 125.34928 76.363718 124.43386 77.75 123.6875 C 78.789701 123.12777 80.041372 122.82111 81.5 122.78125 z M 100.875 124.40625 C 101.33649 124.38755 101.81713 124.3961 102.3125 124.4375 C 104.2815 124.60193 105.94078 125.1731 107.28125 126.1875 C 108.6217 127.20195 109.46682 128.4071 109.84375 129.8125 C 110.22064 131.21794 110.34183 133.18149 110.1875 135.6875 L 103.0625 135.09375 L 103.25 132.03125 C 103.3161 130.95917 103.29514 130.23253 103.15625 129.84375 C 103.01817 129.44161 102.71741 129.22394 102.28125 129.1875 C 101.84507 129.1511 101.54517 129.2712 101.375 129.59375 C 101.20481 129.91631 101.10305 130.67787 101.03125 131.84375 L 100.21875 144.40625 C 100.16015 145.35774 100.24282 146.09258 100.4375 146.59375 C 100.63292 147.08153 100.93881 147.33858 101.375 147.375 C 101.88593 147.4177 102.26373 147.20003 102.46875 146.71875 C 102.68622 146.23852 102.82122 145.31783 102.90625 143.9375 L 103.09375 140.75 L 109.84375 141.3125 C 109.70003 143.44226 109.51559 145.03311 109.3125 146.09375 C 109.12265 147.14204 108.62341 148.21486 107.84375 149.28125 C 107.07735 150.33528 106.13828 151.11219 104.96875 151.59375 C 103.80002 152.06191 102.35742 152.20193 100.6875 152.0625 C 98.556472 151.88456 96.917081 151.38132 95.71875 150.5 C 94.52123 149.60527 93.686743 148.41958 93.25 146.96875 C 92.826541 145.50557 92.71487 143.47484 92.875 140.875 L 93.34375 133.3125 C 93.483242 131.04772 93.786549 129.33589 94.28125 128.21875 C 94.775945 127.10165 95.748896 126.1574 97.1875 125.375 C 98.267064 124.77819 99.490522 124.4624 100.875 124.40625 z M 135.65625 127.25 C 135.86003 127.24954 136.06472 127.26315 136.28125 127.28125 C 137.22836 127.36035 138.09668 127.61382 138.84375 128.09375 C 139.60327 128.57477 140.25301 129.27441 140.8125 130.15625 L 141.5 128.1875 L 148.5 128.78125 L 147.25 149.3125 C 147.07913 152.08655 146.89371 153.88043 146.71875 154.6875 C 146.55705 155.4822 146.09059 156.28747 145.3125 157.125 C 144.53355 157.97592 143.48119 158.60792 142.15625 158.96875 C 140.84292 159.34401 139.20655 159.44461 137.25 159.28125 C 134.84481 159.08042 132.93484 158.47497 131.53125 157.46875 C 130.12683 156.47592 129.48512 154.67094 129.59375 152.09375 L 136.9375 152.71875 C 136.8649 153.89805 137.20241 154.52715 138 154.59375 C 138.57325 154.64165 138.97827 154.47122 139.1875 154.125 C 139.39671 153.77878 139.554 153.05875 139.625 151.90625 L 139.75 149.875 C 139.06316 150.45075 138.33635 150.86373 137.59375 151.125 C 136.86358 151.38732 136.09761 151.50306 135.3125 151.4375 C 133.95412 151.32408 132.8485 150.94479 132 150.28125 C 131.16397 149.61876 130.60916 148.79104 130.34375 147.8125 C 130.07916 146.82057 130.01605 145.42522 130.125 143.65625 L 130.71875 133.96875 C 130.87475 131.43595 131.39656 129.66657 132.3125 128.625 C 133.11394 127.71367 134.22983 127.2532 135.65625 127.25 z M 151.25 129 L 158.8125 129.625 L 158.28125 133.09375 C 159.53225 130.67932 161.19098 129.50492 163.28125 129.53125 L 162.71875 138.90625 C 161.33544 138.79076 160.29778 138.90225 159.625 139.25 C 158.9522 139.59794 158.53786 140.13259 158.34375 140.84375 C 158.15045 141.54154 157.97179 143.19483 157.8125 145.78125 L 157.125 156.3125 L 149.59375 155.6875 L 151.25 129 z M 234.59375 130.0625 L 242.15625 130.6875 L 240.125 163.25 L 232.5625 162.59375 L 232.6875 160.6875 C 231.91516 161.43122 231.13483 161.94581 230.3125 162.28125 C 229.49015 162.61669 228.62234 162.76034 227.75 162.6875 C 226.57856 162.5897 225.60069 162.16596 224.78125 161.4375 C 223.96263 160.69564 223.44559 159.89189 223.25 159 C 223.06687 158.10916 223.03492 156.68873 223.15625 154.71875 L 223.9375 142.21875 C 224.06378 140.16839 224.27289 138.71293 224.5625 137.875 C 224.86456 137.03816 225.46303 136.35169 226.375 135.78125 C 227.28779 135.19746 228.35366 134.96159 229.5625 135.0625 C 230.49715 135.1406 231.34338 135.38618 232.09375 135.8125 C 232.85657 136.23991 233.53399 136.84829 234.125 137.625 L 234.59375 130.0625 z M 171.6875 130.3125 C 172.1503 130.2981 172.62028 130.30155 173.125 130.34375 C 174.81984 130.48529 176.2625 130.88089 177.4375 131.53125 C 178.62576 132.1693 179.54939 132.9488 180.15625 133.875 C 180.76307 134.80125 181.13266 135.74307 181.3125 136.6875 C 181.50478 137.63301 181.55386 139.04795 181.4375 140.9375 L 181.03125 147.46875 C 180.88348 149.86757 180.66863 151.61179 180.375 152.71875 C 180.08215 153.81232 179.54551 154.83311 178.75 155.75 C 177.95529 156.65349 176.93786 157.28398 175.75 157.65625 C 174.57541 158.01616 173.24544 158.12487 171.75 158 C 170.08007 157.86056 168.69754 157.54791 167.5625 157.0625 C 166.42828 156.56369 165.56808 155.90728 164.96875 155.0625 C 164.3827 154.20536 163.95484 153.2111 163.75 152.0625 C 163.546 150.90051 163.51676 149.17106 163.65625 146.90625 L 164.09375 140.0625 C 164.24644 137.5833 164.60317 135.66462 165.1875 134.3125 C 165.77183 132.96042 166.74568 131.92358 168.09375 131.1875 C 169.10479 130.63548 170.29913 130.3557 171.6875 130.3125 z M 251.5625 131.46875 L 259.34375 132.125 L 259.09375 136.375 L 251.3125 135.71875 L 251.5625 131.46875 z M 184.40625 131.78125 L 191.96875 132.40625 L 190.84375 150.5625 C 190.71581 152.63969 190.69303 153.852 190.78125 154.25 C 190.88193 154.64904 191.19533 154.8938 191.71875 154.9375 C 192.27953 154.9843 192.62553 154.79996 192.75 154.40625 C 192.88691 154.01358 193.0217 152.71565 193.15625 150.53125 L 194.25 132.59375 L 201.8125 133.21875 L 200.15625 159.90625 L 192.46875 159.25 L 192.75 157.0625 C 192.17128 157.91668 191.4882 158.54637 190.6875 158.9375 C 189.90006 159.31626 188.99696 159.45824 188 159.375 C 186.86593 159.2803 185.94006 158.99127 185.21875 158.5 C 184.49743 158.00873 183.9739 157.36544 183.65625 156.625 C 183.35105 155.8856 183.19643 155.14616 183.15625 154.375 C 183.11685 153.59045 183.14016 152.04161 183.28125 149.75 L 184.40625 131.78125 z M 139.3125 132.28125 C 139.03102 132.33812 138.81439 132.53275 138.65625 132.8125 C 138.45866 133.17319 138.31933 133.90557 138.25 135.03125 L 137.6875 144 C 137.614 145.19271 137.6352 145.97048 137.75 146.34375 C 137.86561 146.70363 138.15757 146.90109 138.59375 146.9375 C 139.09223 146.9791 139.41778 146.79136 139.59375 146.375 C 139.7697 145.95866 139.90671 144.98309 140 143.46875 L 140.5 135.21875 C 140.5751 133.99926 140.5539 133.2215 140.4375 132.875 C 140.3335 132.52959 140.07362 132.31873 139.625 132.28125 C 139.51595 132.27215 139.40633 132.26229 139.3125 132.28125 z M 204.5625 133.4375 L 212.25 134.09375 L 211.96875 136.53125 C 212.57732 135.59877 213.27891 134.91691 214.09375 134.5 C 214.92185 134.07078 215.84063 133.91366 216.875 134 C 218.17105 134.10824 219.21793 134.52469 220 135.25 C 220.78204 135.97536 221.26261 136.85016 221.4375 137.875 C 221.61318 138.88648 221.61235 140.54321 221.46875 142.875 L 220.34375 161.59375 L 212.78125 160.9375 L 213.90625 142.46875 C 214.01932 140.63281 214.05613 139.50517 213.96875 139.09375 C 213.88135 138.68237 213.57344 138.48018 213.0625 138.4375 C 212.52662 138.3928 212.16596 138.57368 212 139.03125 C 211.83484 139.47546 211.6863 140.70859 211.5625 142.71875 L 210.46875 160.75 L 202.90625 160.125 L 204.5625 133.4375 z M 61.03125 133.53125 L 60.46875 142.625 C 61.580345 142.6774 62.274012 142.5601 62.59375 142.25 C 62.925926 141.94099 63.137848 141.12582 63.21875 139.8125 L 63.40625 136.78125 C 63.49208 135.38754 63.412245 134.53648 63.15625 134.21875 C 62.900229 133.90104 62.200203 133.66928 61.03125 133.53125 z M 172.78125 135.09375 C 172.49667 135.13815 172.31636 135.30051 172.1875 135.5625 C 172.01648 135.89847 171.86542 136.7581 171.78125 138.125 L 171.0625 150.15625 C 170.9849 151.41597 170.9994 152.25513 171.125 152.65625 C 171.25142 153.04397 171.53257 153.24483 171.96875 153.28125 C 172.41738 153.31875 172.71645 153.18074 172.875 152.84375 C 173.046 152.50781 173.179 151.74626 173.25 150.59375 L 174 138.28125 C 174.0842 136.91435 174.08435 136.07865 173.96875 135.71875 C 173.85394 135.34549 173.57362 135.13123 173.125 135.09375 C 173.01283 135.08475 172.87611 135.07895 172.78125 135.09375 z M 251.21875 137.34375 L 259 138 L 257.34375 164.6875 L 249.5625 164.03125 L 251.21875 137.34375 z M 83.09375 137.375 C 81.82631 138.22556 81.082755 138.96715 80.84375 139.59375 C 80.61719 140.22141 80.449275 141.13765 80.375 142.34375 C 80.28998 143.72408 80.33149 144.61569 80.46875 145.03125 C 80.618452 145.44786 80.939003 145.67713 81.4375 145.71875 C 81.911053 145.75825 82.218919 145.64055 82.375 145.34375 C 82.544345 145.03461 82.667451 144.21512 82.75 142.875 L 83.09375 137.375 z M 267.75 138.28125 C 268.14156 138.27925 268.55438 138.30915 268.96875 138.34375 C 270.61374 138.48113 271.97528 138.82365 273.09375 139.375 C 274.22547 139.91404 275.09098 140.58697 275.65625 141.375 C 276.23394 142.16412 276.5704 142.85976 276.65625 143.5 C 276.75455 144.14132 276.73877 145.1599 276.65625 146.5 L 276.59375 148.03125 L 269.90625 147.46875 L 269.96875 146.03125 C 270.04465 144.79836 270.02355 144.0206 269.90625 143.6875 C 269.80226 143.34209 269.49215 143.13748 268.96875 143.09375 C 268.54502 143.05835 268.23083 143.17825 268 143.46875 C 267.76998 143.74591 267.63088 144.17822 267.59375 144.78125 C 267.54335 145.59874 267.5492 146.22806 267.625 146.625 C 267.714 147.00962 268.00465 147.43817 268.5 147.9375 C 269.0078 148.4379 270.06489 149.21033 271.65625 150.21875 C 273.77858 151.5544 275.15855 152.73679 275.78125 153.8125 C 276.40392 154.88823 276.65091 156.40059 276.53125 158.34375 C 276.39751 160.51475 276.0294 162.15016 275.4375 163.21875 C 274.84639 164.27394 273.89589 165.03121 272.625 165.53125 C 271.36739 166.01893 269.88848 166.20714 268.15625 166.0625 C 266.23707 165.90225 264.61247 165.44522 263.28125 164.6875 C 261.9625 163.93082 261.06826 162.98531 260.625 161.84375 C 260.18173 160.70219 260.05048 159.00585 260.1875 156.78125 L 260.28125 155.5 L 266.96875 156.0625 L 266.84375 157.75 C 266.75545 159.18393 266.77065 160.12014 266.90625 160.5625 C 267.0543 161.00591 267.40775 161.23963 267.90625 161.28125 C 268.44211 161.32595 268.80205 161.23245 269.03125 160.96875 C 269.26125 160.69162 269.41179 160.08094 269.46875 159.15625 C 269.54715 157.88314 269.47333 157.06328 269.21875 156.71875 C 268.95192 156.3732 267.54456 155.30195 265 153.5 C 262.86427 151.97467 261.57542 150.65734 261.15625 149.53125 C 260.73791 148.39179 260.5638 147.06345 260.65625 145.5625 C 260.78749 143.43173 261.16468 141.89891 261.75 140.9375 C 262.33614 139.96274 263.28244 139.25792 264.5625 138.8125 C 265.53189 138.47926 266.57533 138.28673 267.75 138.28125 z M 232.5 140.0625 C 232.2137 140.0967 231.97949 140.24774 231.84375 140.46875 C 231.67604 140.75111 231.56437 141.39223 231.5 142.4375 L 230.71875 155.53125 C 230.65185 156.61675 230.65315 157.32659 230.78125 157.6875 C 230.91015 158.03502 231.20127 158.21462 231.625 158.25 C 232.11101 158.2906 232.43987 158.14296 232.625 157.78125 C 232.81093 157.40615 232.93961 156.48754 233.03125 155 L 233.8125 142.65625 C 233.8727 141.67798 233.82889 141.00483 233.6875 140.65625 C 233.55858 140.30875 233.24234 140.10102 232.78125 140.0625 C 232.66909 140.0535 232.59543 140.0511 232.5 140.0625 z "
       id="rect3755-1" />
  </g>
</svg>
