<?xml version="1.0" encoding="UTF-8" standalone="no"?>
<!-- Created with Inkscape (http://www.inkscape.org/) -->
<svg
   xmlns:dc="http://purl.org/dc/elements/1.1/"
   xmlns:cc="http://creativecommons.org/ns#"
   xmlns:rdf="http://www.w3.org/1999/02/22-rdf-syntax-ns#"
   xmlns:svg="http://www.w3.org/2000/svg"
   xmlns="http://www.w3.org/2000/svg"
   xmlns:xlink="http://www.w3.org/1999/xlink"
   xmlns:sodipodi="http://sodipodi.sourceforge.net/DTD/sodipodi-0.dtd"
   xmlns:inkscape="http://www.inkscape.org/namespaces/inkscape"
   width="48"
   height="48"
   id="svg2"
   sodipodi:version="0.32"
   inkscape:version="0.46"
   version="1.0"
   sodipodi:docname="flame01.svg"
   inkscape:output_extension="org.inkscape.output.svg.inkscape">
  <defs
     id="defs4">
    <linearGradient
       id="linearGradient3195">
      <stop
         style="stop-color:#f5f1a7;stop-opacity:1;"
         offset="0"
         id="stop3197" />
      <stop
         id="stop3203"
         offset="0.5"
         style="stop-color:#e2d06f;stop-opacity:1;" />
      <stop
         style="stop-color:#d08138;stop-opacity:1;"
         offset="1"
         id="stop3199" />
    </linearGradient>
    <inkscape:perspective
       sodipodi:type="inkscape:persp3d"
       inkscape:vp_x="0 : 526.18109 : 1"
       inkscape:vp_y="0 : 1000 : 0"
       inkscape:vp_z="744.09448 : 526.18109 : 1"
       inkscape:persp3d-origin="372.04724 : 350.78739 : 1"
       id="perspective10" />
    <radialGradient
       inkscape:collect="always"
       xlink:href="#linearGradient3195"
       id="radialGradient3201"
       cx="22.322254"
       cy="11.159174"
       fx="22.322254"
       fy="11.159174"
       r="10.778734"
       gradientTransform="matrix(-1.0059157,-3.9905977e-8,8.4938746e-8,-2.1410632,44.776559,31.226942)"
       gradientUnits="userSpaceOnUse" />
  </defs>
  <sodipodi:namedview
     id="base"
     pagecolor="#ffffff"
     bordercolor="#666666"
     borderopacity="1.0"
     gridtolerance="10000"
     guidetolerance="10"
     objecttolerance="10"
     inkscape:pageopacity="0.0"
     inkscape:pageshadow="2"
     inkscape:zoom="8.5167278"
     inkscape:cx="34.329489"
     inkscape:cy="25.699855"
     inkscape:document-units="px"
     inkscape:current-layer="layer2"
     showgrid="false"
     inkscape:window-width="1024"
     inkscape:window-height="670"
     inkscape:window-x="105"
     inkscape:window-y="201" />
  <metadata
     id="metadata7">
    <rdf:RDF>
      <cc:Work
         rdf:about="">
        <dc:format>image/svg+xml</dc:format>
        <dc:type
           rdf:resource="http://purl.org/dc/dcmitype/StillImage" />
      </cc:Work>
    </rdf:RDF>
  </metadata>
  <g
     inkscape:label="Layer 1"
     inkscape:groupmode="layer"
     id="layer1"
     style="display:inline">
    <path
       style="opacity:1;fill:url(#radialGradient3201);fill-opacity:1;fill-rule:evenodd;stroke:none;stroke-width:0.0548756px;stroke-linecap:butt;stroke-linejoin:miter;marker:none;marker-start:none;marker-mid:none;marker-end:none;stroke-miterlimit:4;stroke-dasharray:none;stroke-dashoffset:0;stroke-opacity:1;visibility:visible;display:inline;overflow:visible;enable-background:accumulate"
       d="M 11.476641,4.0467946 C 11.488752,7.7405165 12.081252,11.573469 10.502599,15.035633 C 10.222943,17.63325 12.814144,18.994716 14.175834,20.785567 C 15.341,22.167998 14.783664,24.003211 14.635417,25.616333 C 14.116219,28.801596 12.450137,32.124115 13.750548,35.332745 C 14.592125,37.087854 16.184266,38.350324 17.163125,40.034898 C 18.275541,41.640814 19.319864,43.291451 20.318471,44.970271 C 21.792835,40.519465 23.108038,35.73232 26.526274,32.323162 C 28.120923,29.542591 29.796487,26.65313 32.456268,24.752043 C 34.135386,22.748585 33.051015,20.072882 32.236765,17.954328 C 31.268235,15.949429 31.582807,13.731169 32.324223,11.715659 C 33.102174,9.248045 33.846501,6.6435643 33.459462,4.0467946 L 11.476641,4.0467946 z"
       id="path2383" />
  </g>
  <g
     inkscape:groupmode="layer"
     id="layer2"
     style="display:inline">
    <path
       style="opacity:1;fill:url(#radialGradient3201);fill-opacity:1;fill-rule:evenodd;stroke:none;stroke-width:0.0548756px;stroke-linecap:butt;stroke-linejoin:miter;marker:none;marker-start:none;marker-mid:none;marker-end:none;stroke-miterlimit:4;stroke-dasharray:none;stroke-dashoffset:0;stroke-opacity:1;visibility:visible;display:inline;overflow:visible;enable-background:accumulate"
       d="M 11.322304,4.0467946 C 12.147191,8.192308 9.7931803,12.532133 11.360031,16.615021 C 12.028288,18.635303 14.266504,19.418683 15.120724,21.317173 C 16.564151,24.160913 15.690847,27.423708 14.866924,30.313343 C 17.710574,34.240661 18.427031,39.198236 20.808922,43.365161 C 22.645714,44.536849 24.120649,42.500071 24.477013,40.878609 C 25.369214,38.338334 25.48064,35.317041 27.62207,33.412099 C 29.959224,31.010519 33.374143,29.434875 34.642717,26.151371 C 35.142118,24.738771 35.077605,23.025602 33.953342,21.924235 C 32.241738,19.780147 29.486215,18.405428 28.539522,15.707859 C 27.923213,13.805482 29.613265,12.425018 30.413865,10.930252 C 31.523188,8.8189847 31.811059,6.4034373 31.593691,4.0467946 L 11.322304,4.0467946 z"
       id="path2393" />
  </g>
  <g
     inkscape:groupmode="layer"
     id="layer3"
     style="display:inline">
    <path
       style="fill:url(#radialGradient3201);fill-opacity:1;fill-rule:evenodd;stroke:none;stroke-width:0.0548756px;stroke-linecap:butt;stroke-linejoin:miter;stroke-opacity:1"
       d="M 11.54352,4.0467946 C 12.169601,10.03172 13.01377,16.206497 17.360334,20.704968 C 23.292134,25.771877 16.632113,30.456137 15.119009,35.262435 C 17.374816,37.963062 26.181617,44.496468 25.384175,42.540311 C 22.150855,35.503725 31.094994,30.450613 29.745071,23.765997 C 28.534236,17.255829 34.319953,12.071361 32.864404,5.7102105 C 32.782785,5.1526811 32.68443,4.5986699 32.572879,4.0467946 L 11.54352,4.0467946 z"
       id="path2405" />
  </g>
</svg>
