<?xml version="1.0" encoding="UTF-8" standalone="no"?>
<!-- Created with Inkscape (http://www.inkscape.org/) -->
<svg
   xmlns:dc="http://purl.org/dc/elements/1.1/"
   xmlns:cc="http://creativecommons.org/ns#"
   xmlns:rdf="http://www.w3.org/1999/02/22-rdf-syntax-ns#"
   xmlns:svg="http://www.w3.org/2000/svg"
   xmlns="http://www.w3.org/2000/svg"
   xmlns:sodipodi="http://sodipodi.sourceforge.net/DTD/sodipodi-0.dtd"
   xmlns:inkscape="http://www.inkscape.org/namespaces/inkscape"
   id="svg2274"
   sodipodi:version="0.32"
   inkscape:version="0.46"
   width="288"
   height="96"
   version="1.0"
   sodipodi:docbase="C:\Documents and Settings\Fabien\Mes documents\Graphisme"
   sodipodi:docname="signes.svg"
   inkscape:output_extension="org.inkscape.output.svg.inkscape">
  <metadata
     id="metadata2279">
    <rdf:RDF>
      <cc:Work
         rdf:about="">
        <dc:format>image/svg+xml</dc:format>
        <dc:type
           rdf:resource="http://purl.org/dc/dcmitype/StillImage" />
      </cc:Work>
    </rdf:RDF>
  </metadata>
  <defs
     id="defs2277">
    <inkscape:perspective
       sodipodi:type="inkscape:persp3d"
       inkscape:vp_x="0 : 177.16536 : 1"
       inkscape:vp_y="0 : 1000 : 0"
       inkscape:vp_z="354.33072 : 177.16536 : 1"
       inkscape:persp3d-origin="177.16536 : 118.11024 : 1"
       id="perspective2451" />
    <clipPath
       clipPathUnits="userSpaceOnUse"
       id="clipPath3324">
      <path
         sodipodi:type="arc"
         style="fill:none;fill-opacity:1;fill-rule:evenodd;stroke:#ffffff;stroke-width:3;stroke-linecap:butt;stroke-linejoin:round;marker:none;marker-start:none;marker-mid:none;marker-end:none;stroke-miterlimit:4;stroke-dasharray:none;stroke-dashoffset:0;stroke-opacity:1;visibility:visible;display:inline;overflow:visible;enable-background:accumulate"
         id="path3326"
         sodipodi:cx="24"
         sodipodi:cy="24"
         sodipodi:rx="22"
         sodipodi:ry="22"
         d="M 46,24 A 22,22 0 1 1 2,24 A 22,22 0 1 1 46,24 z"
         transform="translate(48,0)" />
    </clipPath>
    <inkscape:perspective
       id="perspective3393"
       inkscape:persp3d-origin="0.5 : 0.33333333 : 1"
       inkscape:vp_z="1 : 0.5 : 1"
       inkscape:vp_y="0 : 1000 : 0"
       inkscape:vp_x="0 : 0.5 : 1"
       sodipodi:type="inkscape:persp3d" />
  </defs>
  <sodipodi:namedview
     inkscape:window-height="738"
     inkscape:window-width="1035"
     inkscape:pageshadow="2"
     inkscape:pageopacity="0.0"
     borderopacity="1.0"
     bordercolor="#666666"
     pagecolor="#ffffff"
     id="base"
     inkscape:zoom="2"
     inkscape:cx="152.98264"
     inkscape:cy="26.245152"
     inkscape:window-x="132"
     inkscape:window-y="138"
     inkscape:current-layer="svg2274"
     showgrid="false" />
  <rect
     style="opacity:1;fill:#202020;fill-opacity:1;fill-rule:evenodd;stroke:none;stroke-width:1.5;stroke-linecap:butt;stroke-linejoin:round;marker:none;marker-start:none;marker-mid:none;marker-end:none;stroke-miterlimit:4;stroke-dasharray:none;stroke-dashoffset:0;stroke-opacity:1;visibility:visible;display:inline;overflow:visible;enable-background:accumulate"
     id="rect3227"
     width="48"
     height="48"
     x="0"
     y="0" />
  <path
     style="fill:none;fill-opacity:0.75;fill-rule:evenodd;stroke:#ffffff;stroke-width:1.5;stroke-linecap:butt;stroke-linejoin:miter;stroke-miterlimit:4;stroke-dasharray:none;stroke-opacity:1"
     d="M 16.762985,25.587344 L 23.92559,19.111347 C 23.92559,19.111347 28.13697,21.64727 26.579836,16.990476 C 26.579836,16.990476 27.781658,15.736248 30.021434,14.184957 C 30.021434,14.184957 23.975246,8.9840832 22.205091,8.3215739 C 22.205091,8.3215739 20.648946,6.779413 17.602278,8.8121721 C 14.55561,10.844933 9.066196,14.979784 8.4657761,17.164215 C 8.4657761,17.164215 8.5414485,18.837808 10.821296,20.807517 C 10.795281,20.823038 14.2194,23.45274 16.762985,25.587344 z"
     id="path1471"
     sodipodi:nodetypes="cccccsccc" />
  <path
     style="fill:none;fill-opacity:0.75;fill-rule:evenodd;stroke:#ffffff;stroke-width:1.5;stroke-linecap:butt;stroke-linejoin:miter;stroke-miterlimit:4;stroke-dasharray:none;stroke-opacity:1"
     d="M 14.686418,10.874302 C 14.740212,10.842207 14.794005,10.810107 14.686418,10.874302 z"
     id="path1475" />
  <path
     style="fill:none;fill-opacity:0.75;fill-rule:evenodd;stroke:#ffffff;stroke-width:1.5;stroke-linecap:butt;stroke-linejoin:miter;stroke-miterlimit:4;stroke-dasharray:none;stroke-opacity:1"
     d="M 17.261838,12.479656 C 17.261838,12.479656 15.813565,11.061117 14.363658,11.066889"
     id="path1477"
     sodipodi:nodetypes="cc" />
  <path
     style="fill:none;fill-opacity:0.75;fill-rule:evenodd;stroke:#ffffff;stroke-width:1.5;stroke-linecap:butt;stroke-linejoin:miter;stroke-miterlimit:4;stroke-dasharray:none;stroke-opacity:1"
     d="M 22.413551,16.253808 C 22.413551,16.253808 23.771736,16.625027 26.602875,19.447423"
     id="path1479" />
  <path
     style="fill:none;fill-opacity:1;fill-rule:evenodd;stroke:#ffffff;stroke-width:1.5;stroke-linecap:butt;stroke-linejoin:miter;stroke-miterlimit:4;stroke-dasharray:none;stroke-opacity:1"
     d="M 22.504011,16.307253 C 22.805966,14.797096 21.836684,14.349466 21.001201,13.599776 C 19.242447,12.021626 17.374279,12.39201 17.415574,12.414781 C 17.415574,12.414781 16.347061,12.837507 17.873893,14.074893 C 17.873893,14.074893 19.887868,15.719846 20.727084,16.239599 C 20.727084,16.239599 21.706888,16.890311 22.504011,16.307253 z"
     id="path1481"
     sodipodi:nodetypes="csc" />
  <path
     id="path1483"
     style="fill:none;fill-opacity:0.75;fill-rule:evenodd;stroke:#ffffff;stroke-width:1.5;stroke-linecap:butt;stroke-linejoin:miter;stroke-miterlimit:4;stroke-dasharray:none;stroke-opacity:1"
     d="M 16.77827,25.524511 C 16.77827,25.524511 22.344079,29.722962 24.76272,39.34421 C 24.67492,39.575969 28.927509,43.041462 34.412309,40.107924 C 37.548664,38.391624 39.011458,35.353832 39.011458,35.353832 C 42.78011,23.974278 29.915682,14.194346 29.915682,14.194346"
     sodipodi:nodetypes="ccccc" />
  <path
     style="fill:none;fill-opacity:0.75;fill-rule:evenodd;stroke:#ffffff;stroke-width:1.5;stroke-linecap:butt;stroke-linejoin:miter;stroke-miterlimit:4;stroke-dasharray:none;stroke-opacity:1"
     d="M 8.5710875,16.873105 C 8.5710875,16.873105 7.5726766,17.858251 9.5437966,20.38815 C 11.514915,22.918046 14.100982,25.188435 14.100982,25.188435 C 14.100982,25.188435 20.970335,32.959646 24.787776,39.382965"
     id="path1507"
     sodipodi:nodetypes="cscc" />
  <path
     style="fill:none;fill-rule:evenodd;stroke:#ff0000;stroke-width:4.5;stroke-linecap:butt;stroke-linejoin:miter;stroke-miterlimit:4;stroke-dasharray:none;stroke-opacity:1"
     d="M 8.2996741,40.498623 L 39.988092,10.152951"
     id="path3229" />
  <path
     sodipodi:type="arc"
     style="opacity:1;fill:none;fill-opacity:1;fill-rule:evenodd;stroke:#ff0000;stroke-width:3;stroke-linecap:butt;stroke-linejoin:round;marker:none;marker-start:none;marker-mid:none;marker-end:none;stroke-miterlimit:4;stroke-dasharray:none;stroke-dashoffset:0;stroke-opacity:1;visibility:visible;display:inline;overflow:visible;enable-background:accumulate"
     id="path3225"
     sodipodi:cx="24"
     sodipodi:cy="24"
     sodipodi:rx="22"
     sodipodi:ry="22"
     d="M 46,24 A 22,22 0 1 1 2,24 A 22,22 0 1 1 46,24 z" />
  <rect
     style="opacity:1;fill:#202020;fill-opacity:1;fill-rule:evenodd;stroke:none;stroke-width:1.5;stroke-linecap:butt;stroke-linejoin:round;marker:none;marker-start:none;marker-mid:none;marker-end:none;stroke-miterlimit:4;stroke-dasharray:none;stroke-dashoffset:0;stroke-opacity:1;visibility:visible;display:inline;overflow:visible;enable-background:accumulate"
     id="rect3231"
     width="48"
     height="48"
     x="48"
     y="0" />
  <rect
     style="opacity:1;fill:#202020;fill-opacity:1;fill-rule:evenodd;stroke:none;stroke-width:1.5;stroke-linecap:butt;stroke-linejoin:round;marker:none;marker-start:none;marker-mid:none;marker-end:none;stroke-miterlimit:4;stroke-dasharray:none;stroke-dashoffset:0;stroke-opacity:1;visibility:visible;display:inline;overflow:visible;enable-background:accumulate"
     id="rect3233"
     width="48"
     height="48"
     x="96"
     y="0" />
  <rect
     style="opacity:1;fill:#202020;fill-opacity:1;fill-rule:evenodd;stroke:none;stroke-width:1.5;stroke-linecap:butt;stroke-linejoin:round;marker:none;marker-start:none;marker-mid:none;marker-end:none;stroke-miterlimit:4;stroke-dasharray:none;stroke-dashoffset:0;stroke-opacity:1;visibility:visible;display:inline;overflow:visible;enable-background:accumulate"
     id="rect3235"
     width="48"
     height="48"
     x="144"
     y="0" />
  <rect
     style="opacity:1;fill:#202020;fill-opacity:1;fill-rule:evenodd;stroke:none;stroke-width:1.5;stroke-linecap:butt;stroke-linejoin:round;marker:none;marker-start:none;marker-mid:none;marker-end:none;stroke-miterlimit:4;stroke-dasharray:none;stroke-dashoffset:0;stroke-opacity:1;visibility:visible;display:inline;overflow:visible;enable-background:accumulate"
     id="rect3237"
     width="48"
     height="48"
     x="192"
     y="0" />
  <rect
     style="opacity:1;fill:#202020;fill-opacity:1;fill-rule:evenodd;stroke:none;stroke-width:1.5;stroke-linecap:butt;stroke-linejoin:round;marker:none;marker-start:none;marker-mid:none;marker-end:none;stroke-miterlimit:4;stroke-dasharray:none;stroke-dashoffset:0;stroke-opacity:1;visibility:visible;display:inline;overflow:visible;enable-background:accumulate"
     id="rect3239"
     width="48"
     height="48"
     x="240"
     y="0" />
  <path
     sodipodi:type="arc"
     style="fill:none;fill-opacity:1;fill-rule:evenodd;stroke:#ffffff;stroke-width:3;stroke-linecap:butt;stroke-linejoin:round;marker:none;marker-start:none;marker-mid:none;marker-end:none;stroke-miterlimit:4;stroke-dasharray:none;stroke-dashoffset:0;stroke-opacity:1;visibility:visible;display:inline;overflow:visible;enable-background:accumulate"
     id="path3243"
     sodipodi:cx="24"
     sodipodi:cy="24"
     sodipodi:rx="22"
     sodipodi:ry="22"
     d="M 46,24 A 22,22 0 1 1 2,24 A 22,22 0 1 1 46,24 z"
     transform="translate(48,0)" />
  <path
     sodipodi:type="arc"
     style="opacity:1;fill:none;fill-opacity:1;fill-rule:evenodd;stroke:#ffffff;stroke-width:3;stroke-linecap:butt;stroke-linejoin:round;marker:none;marker-start:none;marker-mid:none;marker-end:none;stroke-miterlimit:4;stroke-dasharray:none;stroke-dashoffset:0;stroke-opacity:1;visibility:visible;display:inline;overflow:visible;enable-background:accumulate"
     id="path3253"
     sodipodi:cx="24"
     sodipodi:cy="24"
     sodipodi:rx="22"
     sodipodi:ry="22"
     d="M 46,24 A 22,22 0 1 1 2,24 A 22,22 0 1 1 46,24 z"
     transform="translate(240,0)" />
  <path
     sodipodi:type="arc"
     style="opacity:1;fill:none;fill-opacity:1;fill-rule:evenodd;stroke:#ffffff;stroke-width:3;stroke-linecap:butt;stroke-linejoin:round;marker:none;marker-start:none;marker-mid:none;marker-end:none;stroke-miterlimit:4;stroke-dasharray:none;stroke-dashoffset:0;stroke-opacity:1;visibility:visible;display:inline;overflow:visible;enable-background:accumulate"
     id="path3259"
     sodipodi:cx="24"
     sodipodi:cy="24"
     sodipodi:rx="22"
     sodipodi:ry="22"
     d="M 46,24 A 22,22 0 1 1 2,24 A 22,22 0 1 1 46,24 z"
     transform="translate(192,0)" />
  <path
     sodipodi:type="arc"
     style="opacity:1;fill:none;fill-opacity:1;fill-rule:evenodd;stroke:#ffffff;stroke-width:3;stroke-linecap:butt;stroke-linejoin:round;marker:none;marker-start:none;marker-mid:none;marker-end:none;stroke-miterlimit:4;stroke-dasharray:none;stroke-dashoffset:0;stroke-opacity:1;visibility:visible;display:inline;overflow:visible;enable-background:accumulate"
     id="path3265"
     sodipodi:cx="24"
     sodipodi:cy="24"
     sodipodi:rx="22"
     sodipodi:ry="22"
     d="M 46,24 A 22,22 0 1 1 2,24 A 22,22 0 1 1 46,24 z"
     transform="translate(144,0)" />
  <path
     sodipodi:type="arc"
     style="opacity:1;fill:none;fill-opacity:1;fill-rule:evenodd;stroke:#ffffff;stroke-width:3;stroke-linecap:butt;stroke-linejoin:round;marker:none;marker-start:none;marker-mid:none;marker-end:none;stroke-miterlimit:4;stroke-dasharray:none;stroke-dashoffset:0;stroke-opacity:1;visibility:visible;display:inline;overflow:visible;enable-background:accumulate"
     id="path3271"
     sodipodi:cx="24"
     sodipodi:cy="24"
     sodipodi:rx="22"
     sodipodi:ry="22"
     d="M 46,24 A 22,22 0 1 1 2,24 A 22,22 0 1 1 46,24 z"
     transform="translate(96,0)" />
  <rect
     style="fill:none;fill-opacity:1;fill-rule:evenodd;stroke:#ffffff;stroke-width:1.5;stroke-linecap:butt;stroke-linejoin:round;marker:none;marker-start:none;marker-mid:none;marker-end:none;stroke-miterlimit:4;stroke-dasharray:none;stroke-dashoffset:0;stroke-opacity:1;visibility:visible;display:inline;overflow:visible;enable-background:accumulate"
     id="rect3283"
     width="25.441116"
     height="25.441116"
     x="59.315948"
     y="11.502976"
     ry="5.3033009" />
  <rect
     style="fill:none;fill-opacity:1;fill-rule:evenodd;stroke:#ffffff;stroke-width:1.06916106;stroke-linecap:butt;stroke-linejoin:round;marker:none;marker-start:none;marker-mid:none;marker-end:none;stroke-miterlimit:4;stroke-dasharray:none;stroke-dashoffset:0;stroke-opacity:1;visibility:visible;display:inline;overflow:visible;enable-background:accumulate"
     id="rect3287"
     width="19.507996"
     height="16.856344"
     x="62.282509"
     y="14.115984"
     ry="3.8890872" />
  <g
     id="g3311"
     clip-path="url(#clipPath3324)">
    <g
       transform="translate(28,0)"
       id="g3293">
      <rect
         style="opacity:1;fill:none;fill-opacity:1;fill-rule:evenodd;stroke:#ffffff;stroke-width:1.5;stroke-linecap:butt;stroke-linejoin:round;marker:none;marker-start:none;marker-mid:none;marker-end:none;stroke-miterlimit:4;stroke-dasharray:none;stroke-dashoffset:0;stroke-opacity:1;visibility:visible;display:inline;overflow:visible;enable-background:accumulate"
         id="rect3295"
         width="25.441116"
         height="25.441116"
         x="59.315948"
         y="11.502976"
         ry="5.3033009" />
      <rect
         style="opacity:1;fill:none;fill-opacity:1;fill-rule:evenodd;stroke:#ffffff;stroke-width:1.06916106;stroke-linecap:butt;stroke-linejoin:round;marker:none;marker-start:none;marker-mid:none;marker-end:none;stroke-miterlimit:4;stroke-dasharray:none;stroke-dashoffset:0;stroke-opacity:1;visibility:visible;display:inline;overflow:visible;enable-background:accumulate"
         id="rect3297"
         width="19.507996"
         height="16.856344"
         x="62.282509"
         y="14.115984"
         ry="3.8890872" />
    </g>
    <g
       transform="translate(-28.25,0)"
       id="g3299">
      <rect
         style="opacity:1;fill:none;fill-opacity:1;fill-rule:evenodd;stroke:#ffffff;stroke-width:1.5;stroke-linecap:butt;stroke-linejoin:round;marker:none;marker-start:none;marker-mid:none;marker-end:none;stroke-miterlimit:4;stroke-dasharray:none;stroke-dashoffset:0;stroke-opacity:1;visibility:visible;display:inline;overflow:visible;enable-background:accumulate"
         id="rect3301"
         width="25.441116"
         height="25.441116"
         x="59.315948"
         y="11.502976"
         ry="5.3033009" />
      <rect
         style="opacity:1;fill:none;fill-opacity:1;fill-rule:evenodd;stroke:#ffffff;stroke-width:1.06916106;stroke-linecap:butt;stroke-linejoin:round;marker:none;marker-start:none;marker-mid:none;marker-end:none;stroke-miterlimit:4;stroke-dasharray:none;stroke-dashoffset:0;stroke-opacity:1;visibility:visible;display:inline;overflow:visible;enable-background:accumulate"
         id="rect3303"
         width="19.507996"
         height="16.856344"
         x="62.282509"
         y="14.115984"
         ry="3.8890872" />
    </g>
    <g
       transform="translate(0,-28)"
       id="g3305">
      <rect
         style="opacity:1;fill:none;fill-opacity:1;fill-rule:evenodd;stroke:#ffffff;stroke-width:1.5;stroke-linecap:butt;stroke-linejoin:round;marker:none;marker-start:none;marker-mid:none;marker-end:none;stroke-miterlimit:4;stroke-dasharray:none;stroke-dashoffset:0;stroke-opacity:1;visibility:visible;display:inline;overflow:visible;enable-background:accumulate"
         id="rect3307"
         width="25.441116"
         height="25.441116"
         x="59.315948"
         y="11.502976"
         ry="5.3033009" />
      <rect
         style="opacity:1;fill:none;fill-opacity:1;fill-rule:evenodd;stroke:#ffffff;stroke-width:1.06916106;stroke-linecap:butt;stroke-linejoin:round;marker:none;marker-start:none;marker-mid:none;marker-end:none;stroke-miterlimit:4;stroke-dasharray:none;stroke-dashoffset:0;stroke-opacity:1;visibility:visible;display:inline;overflow:visible;enable-background:accumulate"
         id="rect3309"
         width="19.507996"
         height="16.856344"
         x="62.282509"
         y="14.115984"
         ry="3.8890872" />
    </g>
  </g>
  <g
     id="arrow01"
     transform="matrix(0.2811001,0,0,-0.2811001,65.447889,28.924532)"
     style="fill:#ffffff;fill-opacity:1;stroke:none">
    <path
       style="opacity:1;fill:#ffffff;fill-opacity:1;fill-rule:evenodd;stroke:none;stroke-width:2;stroke-linecap:round;stroke-linejoin:miter;marker:none;stroke-miterlimit:4;stroke-dasharray:none;stroke-dashoffset:0;stroke-opacity:0.5;visibility:visible;display:inline;overflow:visible;enable-background:accumulate"
       id="r2393"
       d="M 24,3.34 C 22.7,3.35 21.45,3.86 20.53,4.78 L 6.78,18.56 C 5.4,19.8 4.83,21.7 5.28,23.5 C 5.72,25.29 7.11,26.67 8.9,27.12 C 10.69,27.57 12.6,26.99 13.84,25.62 L 19.06,20.4 L 19.06,39.71 C 19.03,41.52 19.97,43.18 21.53,44.09 C 23.08,45 25.03,45 26.59,44.09 C 28.15,43.18 29.08,41.52 29.06,39.71 L 29.06,20.4 L 34.28,25.62 C 35.51,26.99 37.42,27.57 39.21,27.12 C 41.01,26.67 42.39,25.29 42.84,23.5 C 43.29,21.7 42.71,19.8 41.34,18.56 L 27.62,4.81 C 26.66,3.85 25.35,3.32 24,3.34 z" />
  </g>
  <path
     style="opacity:1;fill:none;fill-opacity:1;fill-rule:evenodd;stroke:#ffffff;stroke-width:1.5;stroke-linecap:butt;stroke-linejoin:round;marker:none;marker-start:none;marker-mid:none;marker-end:none;stroke-miterlimit:4;stroke-dasharray:none;stroke-dashoffset:0;stroke-opacity:1;visibility:visible;display:inline;overflow:visible;enable-background:accumulate"
     d="M 120.03555,12.09375 C 115.85283,12.09375 112.4418,15.504782 112.4418,19.6875 C 112.4418,22.809559 114.33692,25.46504 117.03555,26.625 C 112.27629,27.383234 108.78555,29.889179 108.78555,32.875 L 108.6918,41.40625 C 111.96583,44.059738 116.15232,45.65625 120.6918,45.65625 C 124.57937,45.65625 128.20806,44.501601 131.22305,42.5 C 131.25934,39.269264 131.35027,36.032611 131.28555,32.875 C 131.28555,29.884953 127.77386,27.379319 123.0043,26.625 C 125.70293,25.465039 127.59805,22.809559 127.59805,19.6875 C 127.59805,15.504782 124.21827,12.09375 120.03555,12.09375 z"
     id="path3398" />
  <path
     style="opacity:1;fill:none;fill-opacity:1;fill-rule:evenodd;stroke:#ffffff;stroke-width:1.5;stroke-linecap:butt;stroke-linejoin:round;marker:none;marker-start:none;marker-mid:none;marker-end:none;stroke-miterlimit:4;stroke-dasharray:none;stroke-dashoffset:0;stroke-opacity:1;visibility:visible;display:inline;overflow:visible;enable-background:accumulate"
     d="M 157.80728,16.558634 C 154.92174,16.781558 152.69855,18.657865 152.69855,20.926849 L 152.69855,26.912028 C 152.69855,29.332278 155.24393,31.280244 158.40646,31.280244 L 160.19948,31.280244 L 160.19948,16.558634 L 158.40646,16.558634 C 158.2088,16.558634 157.99965,16.543772 157.80728,16.558634 z"
     id="rect2417"
     sodipodi:nodetypes="cccccccc" />
  <path
     style="opacity:1;fill:none;fill-opacity:1;fill-rule:evenodd;stroke:#ffffff;stroke-width:1.5;stroke-linecap:butt;stroke-linejoin:round;marker:none;marker-start:none;marker-mid:none;marker-end:none;stroke-miterlimit:4;stroke-dasharray:none;stroke-dashoffset:0;stroke-opacity:1;visibility:visible;display:inline;overflow:visible;enable-background:accumulate"
     d="M 159.84375,30.375 L 176.5,39.78125 L 176.5,8.3125 L 159.78125,17.78125"
     id="path2432"
     sodipodi:nodetypes="cccc" />
  <path
     style="opacity:1;fill:none;fill-opacity:1;fill-rule:evenodd;stroke:#ffffff;stroke-width:1.5;stroke-linecap:butt;stroke-linejoin:round;marker:none;marker-start:none;marker-mid:none;marker-end:none;stroke-miterlimit:4;stroke-dasharray:none;stroke-dashoffset:0;stroke-opacity:1;visibility:visible;display:inline;overflow:visible;enable-background:accumulate"
     d="M 219.11244,10.15533 C 217.20962,10.15533 215.67494,11.721256 215.67494,13.62408 C 215.67494,14.649366 216.12255,15.557551 216.83119,16.18658 L 207.01869,16.18658 L 207.01869,19.84283 C 206.40782,19.277144 205.60182,18.90533 204.70619,18.90533 C 202.80337,18.90533 201.26869,20.471256 201.26869,22.37408 C 201.26869,24.276904 202.80337,25.81158 204.70619,25.81158 C 205.59996,25.81158 206.40825,25.461616 207.01869,24.90533 L 207.01869,34.90533 L 211.92494,34.90533 C 211.55313,34.355133 211.33119,33.681389 211.33119,32.96783 C 211.3312,31.065007 212.86587,29.53033 214.76869,29.53033 C 216.67151,29.53033 218.23744,31.065006 218.23744,32.96783 C 218.23744,33.68139 218.0155,34.355133 217.64369,34.90533 L 227.86244,34.90533 L 227.86244,27.68658 C 227.31224,28.058387 226.6385,28.28033 225.92494,28.28033 C 224.02212,28.28033 222.48744,26.745654 222.48744,24.84283 C 222.48745,22.940005 224.02212,21.40533 225.92494,21.40533 C 226.6385,21.40533 227.31224,21.627273 227.86244,21.99908 L 227.86244,16.18658 L 221.39369,16.18658 C 222.10233,15.557551 222.54994,14.649367 222.54994,13.62408 C 222.54994,11.721256 221.01526,10.15533 219.11244,10.15533 z"
     id="rect2440" />
  <rect
     style="opacity:1;fill:#202020;fill-opacity:1;fill-rule:evenodd;stroke:none;stroke-width:1.5;stroke-linecap:butt;stroke-linejoin:round;marker:none;marker-start:none;marker-mid:none;marker-end:none;stroke-miterlimit:4;stroke-dasharray:none;stroke-dashoffset:0;stroke-opacity:1;visibility:visible;display:inline;overflow:visible;enable-background:accumulate"
     id="rect2535"
     width="48"
     height="48"
     x="0"
     y="48" />
  <path
     style="fill:none;fill-opacity:0.75;fill-rule:evenodd;stroke:#ffffff;stroke-width:1.5;stroke-linecap:butt;stroke-linejoin:miter;stroke-miterlimit:4;stroke-dasharray:none;stroke-opacity:1"
     d="M 16.762985,73.587344 L 23.92559,67.111347 C 23.92559,67.111347 28.13697,69.64727 26.579836,64.990476 C 26.579836,64.990476 27.781658,63.736248 30.021434,62.184957 C 30.021434,62.184957 23.975246,56.984083 22.205091,56.321574 C 22.205091,56.321574 20.648946,54.779413 17.602278,56.812172 C 14.55561,58.844933 9.066196,62.979784 8.4657761,65.164215 C 8.4657761,65.164215 8.5414485,66.837808 10.821296,68.807517 C 10.795281,68.823038 14.2194,71.45274 16.762985,73.587344 z"
     id="path2537"
     sodipodi:nodetypes="cccccsccc" />
  <path
     style="fill:none;fill-opacity:0.75;fill-rule:evenodd;stroke:#ffffff;stroke-width:1.5;stroke-linecap:butt;stroke-linejoin:miter;stroke-miterlimit:4;stroke-dasharray:none;stroke-opacity:1"
     d="M 14.686418,58.874302 C 14.740212,58.842207 14.794005,58.810107 14.686418,58.874302 z"
     id="path2539" />
  <path
     style="fill:none;fill-opacity:0.75;fill-rule:evenodd;stroke:#ffffff;stroke-width:1.5;stroke-linecap:butt;stroke-linejoin:miter;stroke-miterlimit:4;stroke-dasharray:none;stroke-opacity:1"
     d="M 17.261838,60.479656 C 17.261838,60.479656 15.813565,59.061117 14.363658,59.066889"
     id="path2541"
     sodipodi:nodetypes="cc" />
  <path
     style="fill:none;fill-opacity:0.75;fill-rule:evenodd;stroke:#ffffff;stroke-width:1.5;stroke-linecap:butt;stroke-linejoin:miter;stroke-miterlimit:4;stroke-dasharray:none;stroke-opacity:1"
     d="M 22.413551,64.253808 C 22.413551,64.253808 23.771736,64.625027 26.602875,67.447423"
     id="path2543" />
  <path
     style="fill:none;fill-opacity:1;fill-rule:evenodd;stroke:#ffffff;stroke-width:1.5;stroke-linecap:butt;stroke-linejoin:miter;stroke-miterlimit:4;stroke-dasharray:none;stroke-opacity:1"
     d="M 22.504011,64.307253 C 22.805966,62.797096 21.836684,62.349466 21.001201,61.599776 C 19.242447,60.021626 17.374279,60.39201 17.415574,60.414781 C 17.415574,60.414781 16.347061,60.837507 17.873893,62.074893 C 17.873893,62.074893 19.887868,63.719846 20.727084,64.239599 C 20.727084,64.239599 21.706888,64.890311 22.504011,64.307253 z"
     id="path2545"
     sodipodi:nodetypes="csc" />
  <path
     id="path2547"
     style="fill:none;fill-opacity:0.75;fill-rule:evenodd;stroke:#ffffff;stroke-width:1.5;stroke-linecap:butt;stroke-linejoin:miter;stroke-miterlimit:4;stroke-dasharray:none;stroke-opacity:1"
     d="M 16.77827,73.524511 C 16.77827,73.524511 22.344079,77.722962 24.76272,87.34421 C 24.67492,87.575969 28.927509,91.041462 34.412309,88.107924 C 37.548664,86.391624 39.011458,83.353832 39.011458,83.353832 C 42.78011,71.974278 29.915682,62.194346 29.915682,62.194346"
     sodipodi:nodetypes="ccccc" />
  <path
     style="fill:none;fill-opacity:0.75;fill-rule:evenodd;stroke:#ffffff;stroke-width:1.5;stroke-linecap:butt;stroke-linejoin:miter;stroke-miterlimit:4;stroke-dasharray:none;stroke-opacity:1"
     d="M 8.5710875,64.873105 C 8.5710875,64.873105 7.5726766,65.858251 9.5437966,68.38815 C 11.514915,70.918046 14.100982,73.188435 14.100982,73.188435 C 14.100982,73.188435 20.970335,80.959646 24.787776,87.382965"
     id="path2549"
     sodipodi:nodetypes="cscc" />
  <path
     style="fill:none;fill-rule:evenodd;stroke:#ff0000;stroke-width:4.5;stroke-linecap:butt;stroke-linejoin:miter;stroke-miterlimit:4;stroke-dasharray:none;stroke-opacity:1"
     d="M 8.2996741,88.498623 L 39.988092,58.152951"
     id="path2551" />
  <path
     sodipodi:type="arc"
     style="opacity:1;fill:none;fill-opacity:1;fill-rule:evenodd;stroke:#ff0000;stroke-width:3;stroke-linecap:butt;stroke-linejoin:round;marker:none;marker-start:none;marker-mid:none;marker-end:none;stroke-miterlimit:4;stroke-dasharray:none;stroke-dashoffset:0;stroke-opacity:1;visibility:visible;display:inline;overflow:visible;enable-background:accumulate"
     id="path2553"
     sodipodi:cx="24"
     sodipodi:cy="24"
     sodipodi:rx="22"
     sodipodi:ry="22"
     d="M 46,24 A 22,22 0 1 1 2,24 A 22,22 0 1 1 46,24 z"
     transform="translate(0,48)" />
  <rect
     style="opacity:1;fill:#202020;fill-opacity:1;fill-rule:evenodd;stroke:none;stroke-width:1.5;stroke-linecap:butt;stroke-linejoin:round;marker:none;marker-start:none;marker-mid:none;marker-end:none;stroke-miterlimit:4;stroke-dasharray:none;stroke-dashoffset:0;stroke-opacity:1;visibility:visible;display:inline;overflow:visible;enable-background:accumulate"
     id="rect2555"
     width="48"
     height="48"
     x="48"
     y="48" />
  <rect
     style="opacity:1;fill:#202020;fill-opacity:1;fill-rule:evenodd;stroke:none;stroke-width:1.5;stroke-linecap:butt;stroke-linejoin:round;marker:none;marker-start:none;marker-mid:none;marker-end:none;stroke-miterlimit:4;stroke-dasharray:none;stroke-dashoffset:0;stroke-opacity:1;visibility:visible;display:inline;overflow:visible;enable-background:accumulate"
     id="rect2557"
     width="48"
     height="48"
     x="96"
     y="48" />
  <rect
     style="opacity:1;fill:#202020;fill-opacity:1;fill-rule:evenodd;stroke:none;stroke-width:1.5;stroke-linecap:butt;stroke-linejoin:round;marker:none;marker-start:none;marker-mid:none;marker-end:none;stroke-miterlimit:4;stroke-dasharray:none;stroke-dashoffset:0;stroke-opacity:1;visibility:visible;display:inline;overflow:visible;enable-background:accumulate"
     id="rect2559"
     width="48"
     height="48"
     x="144"
     y="48" />
  <rect
     style="opacity:1;fill:#202020;fill-opacity:1;fill-rule:evenodd;stroke:none;stroke-width:1.5;stroke-linecap:butt;stroke-linejoin:round;marker:none;marker-start:none;marker-mid:none;marker-end:none;stroke-miterlimit:4;stroke-dasharray:none;stroke-dashoffset:0;stroke-opacity:1;visibility:visible;display:inline;overflow:visible;enable-background:accumulate"
     id="rect2561"
     width="48"
     height="48"
     x="192"
     y="48" />
  <rect
     style="opacity:1;fill:#202020;fill-opacity:1;fill-rule:evenodd;stroke:none;stroke-width:1.5;stroke-linecap:butt;stroke-linejoin:round;marker:none;marker-start:none;marker-mid:none;marker-end:none;stroke-miterlimit:4;stroke-dasharray:none;stroke-dashoffset:0;stroke-opacity:1;visibility:visible;display:inline;overflow:visible;enable-background:accumulate"
     id="rect2563"
     width="48"
     height="48"
     x="240"
     y="48" />
  <path
     sodipodi:type="arc"
     style="fill:none;fill-opacity:1;fill-rule:evenodd;stroke:#ffffff;stroke-width:3;stroke-linecap:butt;stroke-linejoin:round;marker:none;marker-start:none;marker-mid:none;marker-end:none;stroke-miterlimit:4;stroke-dasharray:none;stroke-dashoffset:0;stroke-opacity:1;visibility:visible;display:inline;overflow:visible;enable-background:accumulate"
     id="path2565"
     sodipodi:cx="24"
     sodipodi:cy="24"
     sodipodi:rx="22"
     sodipodi:ry="22"
     d="M 46,24 A 22,22 0 1 1 2,24 A 22,22 0 1 1 46,24 z"
     transform="translate(48,48)" />
  <path
     sodipodi:type="arc"
     style="opacity:1;fill:none;fill-opacity:1;fill-rule:evenodd;stroke:#ffffff;stroke-width:3;stroke-linecap:butt;stroke-linejoin:round;marker:none;marker-start:none;marker-mid:none;marker-end:none;stroke-miterlimit:4;stroke-dasharray:none;stroke-dashoffset:0;stroke-opacity:1;visibility:visible;display:inline;overflow:visible;enable-background:accumulate"
     id="path2567"
     sodipodi:cx="24"
     sodipodi:cy="24"
     sodipodi:rx="22"
     sodipodi:ry="22"
     d="M 46,24 A 22,22 0 1 1 2,24 A 22,22 0 1 1 46,24 z"
     transform="translate(240,48)" />
  <path
     sodipodi:type="arc"
     style="opacity:1;fill:none;fill-opacity:1;fill-rule:evenodd;stroke:#ffffff;stroke-width:3;stroke-linecap:butt;stroke-linejoin:round;marker:none;marker-start:none;marker-mid:none;marker-end:none;stroke-miterlimit:4;stroke-dasharray:none;stroke-dashoffset:0;stroke-opacity:1;visibility:visible;display:inline;overflow:visible;enable-background:accumulate"
     id="path2569"
     sodipodi:cx="24"
     sodipodi:cy="24"
     sodipodi:rx="22"
     sodipodi:ry="22"
     d="M 46,24 A 22,22 0 1 1 2,24 A 22,22 0 1 1 46,24 z"
     transform="translate(192,48)" />
  <path
     sodipodi:type="arc"
     style="opacity:1;fill:none;fill-opacity:1;fill-rule:evenodd;stroke:#ff0000;stroke-width:3;stroke-linecap:butt;stroke-linejoin:round;marker:none;marker-start:none;marker-mid:none;marker-end:none;stroke-miterlimit:4;stroke-dasharray:none;stroke-dashoffset:0;stroke-opacity:1;visibility:visible;display:inline;overflow:visible;enable-background:accumulate;color:#000000"
     id="path2571"
     sodipodi:cx="24"
     sodipodi:cy="24"
     sodipodi:rx="22"
     sodipodi:ry="22"
     d="M 46,24 A 22,22 0 1 1 2,24 A 22,22 0 1 1 46,24 z"
     transform="translate(144,48)" />
  <path
     sodipodi:type="arc"
     style="opacity:1;fill:none;fill-opacity:1;fill-rule:evenodd;stroke:#ffffff;stroke-width:3;stroke-linecap:butt;stroke-linejoin:round;marker:none;marker-start:none;marker-mid:none;marker-end:none;stroke-miterlimit:4;stroke-dasharray:none;stroke-dashoffset:0;stroke-opacity:1;visibility:visible;display:inline;overflow:visible;enable-background:accumulate"
     id="path2573"
     sodipodi:cx="24"
     sodipodi:cy="24"
     sodipodi:rx="22"
     sodipodi:ry="22"
     d="M 46,24 A 22,22 0 1 1 2,24 A 22,22 0 1 1 46,24 z"
     transform="translate(96,48)" />
  <rect
     style="fill:none;fill-opacity:1;fill-rule:evenodd;stroke:#ffffff;stroke-width:1.5;stroke-linecap:butt;stroke-linejoin:round;marker:none;marker-start:none;marker-mid:none;marker-end:none;stroke-miterlimit:4;stroke-dasharray:none;stroke-dashoffset:0;stroke-opacity:1;visibility:visible;display:inline;overflow:visible;enable-background:accumulate"
     id="rect2575"
     width="25.441116"
     height="25.441116"
     x="59.315948"
     y="59.502975"
     ry="5.3033009" />
  <rect
     style="fill:none;fill-opacity:1;fill-rule:evenodd;stroke:#ffffff;stroke-width:1.06916106;stroke-linecap:butt;stroke-linejoin:round;marker:none;marker-start:none;marker-mid:none;marker-end:none;stroke-miterlimit:4;stroke-dasharray:none;stroke-dashoffset:0;stroke-opacity:1;visibility:visible;display:inline;overflow:visible;enable-background:accumulate"
     id="rect2577"
     width="19.507996"
     height="16.856344"
     x="62.282509"
     y="62.115982"
     ry="3.8890872" />
  <g
     id="g2579"
     clip-path="url(#clipPath3324)"
     transform="translate(0,48)">
    <g
       transform="translate(28,0)"
       id="g2581">
      <rect
         style="opacity:1;fill:none;fill-opacity:1;fill-rule:evenodd;stroke:#ffffff;stroke-width:1.5;stroke-linecap:butt;stroke-linejoin:round;marker:none;marker-start:none;marker-mid:none;marker-end:none;stroke-miterlimit:4;stroke-dasharray:none;stroke-dashoffset:0;stroke-opacity:1;visibility:visible;display:inline;overflow:visible;enable-background:accumulate"
         id="rect2583"
         width="25.441116"
         height="25.441116"
         x="59.315948"
         y="11.502976"
         ry="5.3033009" />
      <rect
         style="opacity:1;fill:none;fill-opacity:1;fill-rule:evenodd;stroke:#ffffff;stroke-width:1.06916106;stroke-linecap:butt;stroke-linejoin:round;marker:none;marker-start:none;marker-mid:none;marker-end:none;stroke-miterlimit:4;stroke-dasharray:none;stroke-dashoffset:0;stroke-opacity:1;visibility:visible;display:inline;overflow:visible;enable-background:accumulate"
         id="rect2585"
         width="19.507996"
         height="16.856344"
         x="62.282509"
         y="14.115984"
         ry="3.8890872" />
    </g>
    <g
       transform="translate(-28.25,0)"
       id="g2587">
      <rect
         style="opacity:1;fill:none;fill-opacity:1;fill-rule:evenodd;stroke:#ffffff;stroke-width:1.5;stroke-linecap:butt;stroke-linejoin:round;marker:none;marker-start:none;marker-mid:none;marker-end:none;stroke-miterlimit:4;stroke-dasharray:none;stroke-dashoffset:0;stroke-opacity:1;visibility:visible;display:inline;overflow:visible;enable-background:accumulate"
         id="rect2589"
         width="25.441116"
         height="25.441116"
         x="59.315948"
         y="11.502976"
         ry="5.3033009" />
      <rect
         style="opacity:1;fill:none;fill-opacity:1;fill-rule:evenodd;stroke:#ffffff;stroke-width:1.06916106;stroke-linecap:butt;stroke-linejoin:round;marker:none;marker-start:none;marker-mid:none;marker-end:none;stroke-miterlimit:4;stroke-dasharray:none;stroke-dashoffset:0;stroke-opacity:1;visibility:visible;display:inline;overflow:visible;enable-background:accumulate"
         id="rect2591"
         width="19.507996"
         height="16.856344"
         x="62.282509"
         y="14.115984"
         ry="3.8890872" />
    </g>
    <g
       transform="translate(0,-28)"
       id="g2593">
      <rect
         style="opacity:1;fill:none;fill-opacity:1;fill-rule:evenodd;stroke:#ffffff;stroke-width:1.5;stroke-linecap:butt;stroke-linejoin:round;marker:none;marker-start:none;marker-mid:none;marker-end:none;stroke-miterlimit:4;stroke-dasharray:none;stroke-dashoffset:0;stroke-opacity:1;visibility:visible;display:inline;overflow:visible;enable-background:accumulate"
         id="rect2595"
         width="25.441116"
         height="25.441116"
         x="59.315948"
         y="11.502976"
         ry="5.3033009" />
      <rect
         style="opacity:1;fill:none;fill-opacity:1;fill-rule:evenodd;stroke:#ffffff;stroke-width:1.06916106;stroke-linecap:butt;stroke-linejoin:round;marker:none;marker-start:none;marker-mid:none;marker-end:none;stroke-miterlimit:4;stroke-dasharray:none;stroke-dashoffset:0;stroke-opacity:1;visibility:visible;display:inline;overflow:visible;enable-background:accumulate"
         id="rect2597"
         width="19.507996"
         height="16.856344"
         x="62.282509"
         y="14.115984"
         ry="3.8890872" />
    </g>
  </g>
  <g
     id="g2599"
     transform="matrix(0.2811001,0,0,-0.2811001,65.447889,76.924532)"
     style="fill:#ffffff;fill-opacity:1;stroke:none">
    <path
       style="opacity:1;fill:#ffffff;fill-opacity:1;fill-rule:evenodd;stroke:none;stroke-width:2;stroke-linecap:round;stroke-linejoin:miter;marker:none;stroke-miterlimit:4;stroke-dasharray:none;stroke-dashoffset:0;stroke-opacity:0.5;visibility:visible;display:inline;overflow:visible;enable-background:accumulate"
       id="path2601"
       d="M 24,3.34 C 22.7,3.35 21.45,3.86 20.53,4.78 L 6.78,18.56 C 5.4,19.8 4.83,21.7 5.28,23.5 C 5.72,25.29 7.11,26.67 8.9,27.12 C 10.69,27.57 12.6,26.99 13.84,25.62 L 19.06,20.4 L 19.06,39.71 C 19.03,41.52 19.97,43.18 21.53,44.09 C 23.08,45 25.03,45 26.59,44.09 C 28.15,43.18 29.08,41.52 29.06,39.71 L 29.06,20.4 L 34.28,25.62 C 35.51,26.99 37.42,27.57 39.21,27.12 C 41.01,26.67 42.39,25.29 42.84,23.5 C 43.29,21.7 42.71,19.8 41.34,18.56 L 27.62,4.81 C 26.66,3.85 25.35,3.32 24,3.34 z" />
  </g>
  <path
     style="opacity:1;fill:none;fill-opacity:1;fill-rule:evenodd;stroke:#ffffff;stroke-width:1.5;stroke-linecap:butt;stroke-linejoin:round;marker:none;marker-start:none;marker-mid:none;marker-end:none;stroke-miterlimit:4;stroke-dasharray:none;stroke-dashoffset:0;stroke-opacity:1;visibility:visible;display:inline;overflow:visible;enable-background:accumulate"
     d="M 120.03555,60.09375 C 115.85283,60.09375 112.4418,63.504782 112.4418,67.6875 C 112.4418,70.809559 114.33692,73.46504 117.03555,74.625 C 112.27629,75.383234 108.78555,77.889179 108.78555,80.875 L 108.6918,89.40625 C 111.96583,92.059738 116.15232,93.65625 120.6918,93.65625 C 124.57937,93.65625 128.20806,92.501601 131.22305,90.5 C 131.25934,87.269264 131.35027,84.032611 131.28555,80.875 C 131.28555,77.884953 127.77386,75.379319 123.0043,74.625 C 125.70293,73.465039 127.59805,70.809559 127.59805,67.6875 C 127.59805,63.504782 124.21827,60.09375 120.03555,60.09375 z"
     id="path2603" />
  <path
     style="opacity:1;fill:none;fill-opacity:1;fill-rule:evenodd;stroke:#ffffff;stroke-width:1.5;stroke-linecap:butt;stroke-linejoin:round;marker:none;marker-start:none;marker-mid:none;marker-end:none;stroke-miterlimit:4;stroke-dasharray:none;stroke-dashoffset:0;stroke-opacity:1;visibility:visible;display:inline;overflow:visible;enable-background:accumulate"
     d="M 157.80728,64.558634 C 154.92174,64.781558 152.69855,66.657865 152.69855,68.926849 L 152.69855,74.912028 C 152.69855,77.332278 155.24393,79.280244 158.40646,79.280244 L 160.19948,79.280244 L 160.19948,64.558634 L 158.40646,64.558634 C 158.2088,64.558634 157.99965,64.543772 157.80728,64.558634 z"
     id="path2605"
     sodipodi:nodetypes="cccccccc" />
  <path
     style="opacity:1;fill:none;fill-opacity:1;fill-rule:evenodd;stroke:#ffffff;stroke-width:1.5;stroke-linecap:butt;stroke-linejoin:round;marker:none;marker-start:none;marker-mid:none;marker-end:none;stroke-miterlimit:4;stroke-dasharray:none;stroke-dashoffset:0;stroke-opacity:1;visibility:visible;display:inline;overflow:visible;enable-background:accumulate"
     d="M 159.84375,78.375 L 176.5,87.78125 L 176.5,56.3125 L 159.78125,65.78125"
     id="path2607"
     sodipodi:nodetypes="cccc" />
  <path
     style="opacity:1;fill:none;fill-opacity:1;fill-rule:evenodd;stroke:#ffffff;stroke-width:1.5;stroke-linecap:butt;stroke-linejoin:round;marker:none;marker-start:none;marker-mid:none;marker-end:none;stroke-miterlimit:4;stroke-dasharray:none;stroke-dashoffset:0;stroke-opacity:1;visibility:visible;display:inline;overflow:visible;enable-background:accumulate"
     d="M 219.11244,58.15533 C 217.20962,58.15533 215.67494,59.721256 215.67494,61.62408 C 215.67494,62.649366 216.12255,63.557551 216.83119,64.18658 L 207.01869,64.18658 L 207.01869,67.84283 C 206.40782,67.277144 205.60182,66.90533 204.70619,66.90533 C 202.80337,66.90533 201.26869,68.471256 201.26869,70.37408 C 201.26869,72.276904 202.80337,73.81158 204.70619,73.81158 C 205.59996,73.81158 206.40825,73.461616 207.01869,72.90533 L 207.01869,82.90533 L 211.92494,82.90533 C 211.55313,82.355133 211.33119,81.681389 211.33119,80.96783 C 211.3312,79.065007 212.86587,77.53033 214.76869,77.53033 C 216.67151,77.53033 218.23744,79.065006 218.23744,80.96783 C 218.23744,81.68139 218.0155,82.355133 217.64369,82.90533 L 227.86244,82.90533 L 227.86244,75.68658 C 227.31224,76.058387 226.6385,76.28033 225.92494,76.28033 C 224.02212,76.28033 222.48744,74.745654 222.48744,72.84283 C 222.48745,70.940005 224.02212,69.40533 225.92494,69.40533 C 226.6385,69.40533 227.31224,69.627273 227.86244,69.99908 L 227.86244,64.18658 L 221.39369,64.18658 C 222.10233,63.557551 222.54994,62.649367 222.54994,61.62408 C 222.54994,59.721256 221.01526,58.15533 219.11244,58.15533 z"
     id="path2609" />
  <path
     style="fill:none;fill-rule:evenodd;stroke:#ff0000;stroke-width:4.5;stroke-linecap:butt;stroke-linejoin:miter;stroke-miterlimit:4;stroke-dasharray:none;stroke-opacity:1"
     d="M 153.29967,88.498623 L 184.98809,58.152951"
     id="path2611" />
</svg>
