<?xml version="1.0" encoding="UTF-8" standalone="no"?>
<!-- Created with Inkscape (http://www.inkscape.org/) -->
<svg
   xmlns:dc="http://purl.org/dc/elements/1.1/"
   xmlns:cc="http://creativecommons.org/ns#"
   xmlns:rdf="http://www.w3.org/1999/02/22-rdf-syntax-ns#"
   xmlns:svg="http://www.w3.org/2000/svg"
   xmlns="http://www.w3.org/2000/svg"
   xmlns:xlink="http://www.w3.org/1999/xlink"
   xmlns:sodipodi="http://sodipodi.sourceforge.net/DTD/sodipodi-0.dtd"
   xmlns:inkscape="http://www.inkscape.org/namespaces/inkscape"
   width="480"
   height="640"
   id="svg2383"
   sodipodi:version="0.32"
   inkscape:version="0.46"
   version="1.0"
   sodipodi:docname="sketch2.svg"
   inkscape:output_extension="org.inkscape.output.svg.inkscape"
   inkscape:export-filename="/home/jcharlot/workspace/apps/titrus/res/img/game.png"
   inkscape:export-xdpi="90"
   inkscape:export-ydpi="90">
  <defs
     id="defs2385">
    <linearGradient
       id="linearGradient3218">
      <stop
         style="stop-color:#c0fcff;stop-opacity:1;"
         offset="0"
         id="stop3220" />
      <stop
         style="stop-color:#ffffff;stop-opacity:0;"
         offset="1"
         id="stop3222" />
    </linearGradient>
    <linearGradient
       id="linearGradient3210">
      <stop
         style="stop-color:#c0fcff;stop-opacity:1;"
         offset="0"
         id="stop3212" />
      <stop
         style="stop-color:#ffffff;stop-opacity:0;"
         offset="1"
         id="stop3214" />
    </linearGradient>
    <linearGradient
       id="linearGradient3202">
      <stop
         id="stop3204"
         offset="0"
         style="stop-color:#c0fcff;stop-opacity:1;" />
      <stop
         id="stop3206"
         offset="1"
         style="stop-color:#ffffff;stop-opacity:0;" />
    </linearGradient>
    <linearGradient
       id="linearGradient3181">
      <stop
         style="stop-color:#202020;stop-opacity:1;"
         offset="0"
         id="stop3183" />
      <stop
         style="stop-color:#3c3c3c;stop-opacity:1;"
         offset="1"
         id="stop3185" />
    </linearGradient>
    <linearGradient
       id="linearGradient3173">
      <stop
         style="stop-color:#c0e9ff;stop-opacity:1;"
         offset="0"
         id="stop3175" />
      <stop
         style="stop-color:#7fbada;stop-opacity:1;"
         offset="1"
         id="stop3177" />
    </linearGradient>
    <inkscape:perspective
       sodipodi:type="inkscape:persp3d"
       inkscape:vp_x="0 : 240 : 1"
       inkscape:vp_y="0 : 1000 : 0"
       inkscape:vp_z="640 : 240 : 1"
       inkscape:persp3d-origin="320 : 160 : 1"
       id="perspective2391" />
    <inkscape:perspective
       sodipodi:type="inkscape:persp3d"
       inkscape:vp_x="0 : 526.18109 : 1"
       inkscape:vp_y="0 : 1000 : 0"
       inkscape:vp_z="744.09448 : 526.18109 : 1"
       inkscape:persp3d-origin="372.04724 : 350.78739 : 1"
       id="perspective2551" />
    <inkscape:perspective
       sodipodi:type="inkscape:persp3d"
       inkscape:vp_x="0 : 526.18109 : 1"
       inkscape:vp_y="0 : 1000 : 0"
       inkscape:vp_z="744.09448 : 526.18109 : 1"
       inkscape:persp3d-origin="372.04724 : 350.78739 : 1"
       id="perspective4908" />
    <inkscape:perspective
       sodipodi:type="inkscape:persp3d"
       inkscape:vp_x="0 : 526.18109 : 1"
       inkscape:vp_y="0 : 1000 : 0"
       inkscape:vp_z="744.09448 : 526.18109 : 1"
       inkscape:persp3d-origin="372.04724 : 350.78739 : 1"
       id="perspective4841" />
    <inkscape:perspective
       sodipodi:type="inkscape:persp3d"
       inkscape:vp_x="0 : 526.18109 : 1"
       inkscape:vp_y="0 : 1000 : 0"
       inkscape:vp_z="744.09448 : 526.18109 : 1"
       inkscape:persp3d-origin="372.04724 : 350.78739 : 1"
       id="perspective4736" />
    <inkscape:perspective
       sodipodi:type="inkscape:persp3d"
       inkscape:vp_x="0 : 526.18109 : 1"
       inkscape:vp_y="0 : 1000 : 0"
       inkscape:vp_z="744.09448 : 526.18109 : 1"
       inkscape:persp3d-origin="372.04724 : 350.78739 : 1"
       id="perspective4669" />
    <inkscape:perspective
       sodipodi:type="inkscape:persp3d"
       inkscape:vp_x="0 : 526.18109 : 1"
       inkscape:vp_y="0 : 1000 : 0"
       inkscape:vp_z="744.09448 : 526.18109 : 1"
       inkscape:persp3d-origin="372.04724 : 350.78739 : 1"
       id="perspective3953" />
    <inkscape:perspective
       sodipodi:type="inkscape:persp3d"
       inkscape:vp_x="0 : 526.18109 : 1"
       inkscape:vp_y="0 : 1000 : 0"
       inkscape:vp_z="744.09448 : 526.18109 : 1"
       inkscape:persp3d-origin="372.04724 : 350.78739 : 1"
       id="perspective3866" />
    <mask
       id="mask3760"
       maskUnits="userSpaceOnUse">
      <path
         id="path3762"
         d="M 0,52.6875 L 0,180.46875 L 43.3125,180.46875 L 43.3125,82.65625 L 19.1875,82.65625 L 19.1875,52.6875 L 0,52.6875 z M 91.125,52.6875 L 91.125,82.65625 L 67,82.65625 L 67,180.46875 L 102.84375,180.46875 L 102.84375,52.6875 L 91.125,52.6875 z M 126.5625,52.6875 L 126.5625,180.46875 L 162.25,180.46875 L 162.25,82.65625 L 138.125,82.65625 L 138.125,52.6875 L 126.5625,52.6875 z M 210.09375,52.6875 L 210.09375,82.65625 L 185.9375,82.65625 L 185.9375,180.46875 L 221.15625,180.46875 L 221.15625,52.6875 L 210.09375,52.6875 z M 275.5625,52.6875 C 276.20973,52.957246 276.80317,53.245951 277.375,53.5625 C 281.24207,55.703555 284.38086,59.672033 286.75,65.5 C 289.11899,71.268725 290.31242,78.330513 290.3125,86.65625 C 290.31244,93.91171 289.40531,100.17598 287.59375,105.46875 C 285.78203,110.70221 283.26405,114.9792 280.09375,118.25 C 278.07302,120.33152 275.3312,122.03849 271.8125,123.40625 C 274.63441,125.01201 276.67964,126.61311 277.96875,128.21875 C 278.83967,129.28926 280.08124,131.58505 281.71875,135.09375 C 283.39097,138.60253 284.505,141.31574 285.0625,143.21875 L 296.34375,180.46875 L 323.34375,180.46875 C 321.19477,179.53801 319.24846,178.33351 317.5625,176.84375 C 314.60115,174.16759 311.91107,170.37657 309.4375,165.5 C 306.99875,160.62346 305.31206,155.61144 304.40625,150.4375 C 302.943,142.1117 302.21874,134.73534 302.21875,128.3125 L 302.21875,52.6875 L 275.5625,52.6875 z M 325.84375,52.6875 L 325.84375,130.1875 C 325.84372,137.32398 326.98183,142.92481 329.28125,146.96875 C 331.61545,150.95329 334.82643,152.93753 338.9375,152.9375 C 343.01362,152.93753 346.20056,150.98757 348.5,147.0625 C 350.83416,143.07803 352.03119,137.44292 352.03125,130.1875 L 352.03125,52.6875 L 325.84375,52.6875 z M 375.625,52.6875 L 375.625,128.3125 C 375.62492,136.04368 374.92833,143.35148 373.5,150.25 C 372.10635,157.08911 369.87469,163.10735 366.84375,168.28125 C 363.84751,173.3957 360.71591,176.98104 357.40625,179.0625 C 356.59677,179.57542 355.74168,180.04611 354.875,180.46875 L 407.0625,180.46875 C 402.205,178.33366 398.45196,175.00556 395.8125,170.5 C 390.79564,161.9363 387.94319,151.07743 387.28125,137.875 L 409.8125,135.4375 C 410.30023,141.68192 411.28314,146.44792 412.78125,149.71875 C 415.21996,155.01163 418.72087,157.65627 423.25,157.65625 C 426.62937,157.65627 429.21957,156.33244 431.03125,153.65625 C 432.87769,150.92065 433.81245,147.75575 433.8125,144.1875 C 433.81246,140.79773 432.92941,137.76996 431.1875,135.09375 C 429.44548,132.41763 425.40319,129.87886 419.0625,127.5 C 408.68039,123.51555 401.26831,118.22626 396.84375,111.625 C 392.38432,105.02388 390.15624,96.603974 390.15625,86.375 C 390.15623,79.654958 391.29794,73.322136 393.5625,67.375 C 395.86187,61.368618 399.2798,56.671181 403.84375,53.28125 C 404.11982,53.07419 404.4305,52.88213 404.71875,52.6875 L 375.625,52.6875 z M 439.8125,52.6875 C 441.77832,54.001709 443.55135,55.61944 445.09375,57.5 C 450.2499,63.685028 453.30568,73.534632 454.28125,87.09375 L 431.96875,89.34375 C 431.37643,83.456288 430.13486,79.176265 428.21875,76.5 C 426.33739,73.823942 423.71952,72.468859 420.375,72.46875 C 417.62268,72.468856 415.54979,73.478118 414.15625,75.5 C 412.76265,77.462623 412.06247,79.864278 412.0625,82.71875 C 412.06248,84.800307 412.63153,86.678676 413.78125,88.34375 C 414.89607,90.06848 417.53801,91.669582 421.71875,93.15625 C 432.06595,96.962434 439.47803,100.82504 443.9375,104.75 C 448.4317,108.61564 451.69801,113.4502 453.71875,119.21875 C 455.7742,124.98742 456.78118,131.42612 456.78125,138.5625 C 456.78117,146.94785 455.43614,154.70431 452.71875,161.78125 C 450.00123,168.85823 446.18993,174.2191 441.3125,177.90625 C 439.97697,178.89956 438.55746,179.74742 437.03125,180.46875 L 480,180.46875 L 480,52.6875 L 439.8125,52.6875 z M 244.9375,76.75 L 244.9375,103.34375 L 254.90625,103.34375 C 255.98622,103.34383 258.08677,102.75198 261.1875,101.5625 C 262.75523,101.02734 264.02445,99.637982 265,97.4375 C 266.01028,95.237187 266.5312,92.729662 266.53125,89.875 C 266.53119,85.652704 265.72396,82.41622 264.15625,80.15625 C 262.58844,77.896486 259.66376,76.750104 255.34375,76.75 L 244.9375,76.75 z M 244.9375,128.0625 L 244.9375,180.46875 L 269.53125,180.46875 L 257.125,141.15625 C 255.52235,135.98238 254.09792,132.64003 252.84375,131.09375 C 251.13658,129.07181 249.19124,128.06255 247.03125,128.0625 L 244.9375,128.0625 z"
         style="opacity:1;fill:#ffff00;fill-opacity:1;fill-rule:evenodd;stroke:none;stroke-width:2;stroke-linecap:butt;stroke-linejoin:miter;marker:none;marker-start:none;marker-mid:none;marker-end:none;stroke-miterlimit:4;stroke-dasharray:none;stroke-dashoffset:0;stroke-opacity:0.50196078;visibility:visible;display:inline;overflow:visible;enable-background:accumulate" />
    </mask>
    <inkscape:perspective
       sodipodi:type="inkscape:persp3d"
       inkscape:vp_x="0 : 526.18109 : 1"
       inkscape:vp_y="0 : 1000 : 0"
       inkscape:vp_z="744.09448 : 526.18109 : 1"
       inkscape:persp3d-origin="372.04724 : 350.78739 : 1"
       id="perspective3737" />
    <inkscape:perspective
       sodipodi:type="inkscape:persp3d"
       inkscape:vp_x="0 : 526.18109 : 1"
       inkscape:vp_y="0 : 1000 : 0"
       inkscape:vp_z="744.09448 : 526.18109 : 1"
       inkscape:persp3d-origin="372.04724 : 350.78739 : 1"
       id="perspective3639" />
    <inkscape:perspective
       id="perspective3544"
       inkscape:persp3d-origin="320 : 160 : 1"
       inkscape:vp_z="640 : 240 : 1"
       inkscape:vp_y="0 : 1000 : 0"
       inkscape:vp_x="0 : 240 : 1"
       sodipodi:type="inkscape:persp3d" />
    <inkscape:perspective
       id="perspective3263"
       inkscape:persp3d-origin="372.04724 : 350.78739 : 1"
       inkscape:vp_z="744.09448 : 526.18109 : 1"
       inkscape:vp_y="0 : 1000 : 0"
       inkscape:vp_x="0 : 526.18109 : 1"
       sodipodi:type="inkscape:persp3d" />
    <linearGradient
       inkscape:collect="always"
       xlink:href="#linearGradient3173"
       id="linearGradient3179"
       x1="340"
       y1="180"
       x2="470"
       y2="180"
       gradientUnits="userSpaceOnUse" />
    <linearGradient
       inkscape:collect="always"
       xlink:href="#linearGradient3181"
       id="linearGradient3187"
       x1="380.97995"
       y1="640"
       x2="89.301178"
       y2="0"
       gradientUnits="userSpaceOnUse" />
    <linearGradient
       inkscape:collect="always"
       xlink:href="#linearGradient3173"
       id="linearGradient3189"
       gradientUnits="userSpaceOnUse"
       x1="340"
       y1="180"
       x2="470"
       y2="180" />
    <linearGradient
       inkscape:collect="always"
       xlink:href="#linearGradient3173"
       id="linearGradient3192"
       gradientUnits="userSpaceOnUse"
       x1="340"
       y1="180"
       x2="470"
       y2="180" />
    <linearGradient
       inkscape:collect="always"
       xlink:href="#linearGradient3202"
       id="linearGradient3208"
       gradientUnits="userSpaceOnUse"
       x1="400.4761"
       y1="10"
       x2="400.4761"
       y2="32.401432" />
    <linearGradient
       inkscape:collect="always"
       xlink:href="#linearGradient3210"
       id="linearGradient3216"
       gradientUnits="userSpaceOnUse"
       x1="401.50665"
       y1="147.97624"
       x2="401.50665"
       y2="170.37762" />
    <linearGradient
       inkscape:collect="always"
       xlink:href="#linearGradient3218"
       id="linearGradient3224"
       gradientUnits="userSpaceOnUse"
       x1="405.00803"
       y1="222"
       x2="405.00803"
       y2="244.4014" />
  </defs>
  <sodipodi:namedview
     id="base"
     pagecolor="#ffffff"
     bordercolor="#666666"
     borderopacity="1.0"
     inkscape:pageopacity="0.0"
     inkscape:pageshadow="2"
     inkscape:zoom="0.51564948"
     inkscape:cx="369.57263"
     inkscape:cy="292.47065"
     inkscape:current-layer="layer1"
     inkscape:document-units="px"
     showgrid="false"
     inkscape:window-width="1043"
     inkscape:window-height="788"
     inkscape:window-x="57"
     inkscape:window-y="159"
     showguides="true"
     inkscape:guide-bbox="true" />
  <metadata
     id="metadata2388">
    <rdf:RDF>
      <cc:Work
         rdf:about="">
        <dc:format>image/svg+xml</dc:format>
        <dc:type
           rdf:resource="http://purl.org/dc/dcmitype/StillImage" />
      </cc:Work>
    </rdf:RDF>
  </metadata>
  <g
     id="layer1"
     inkscape:label="Layer 1"
     inkscape:groupmode="layer">
    <rect
       style="opacity:1;fill:url(#linearGradient3187);fill-opacity:1;fill-rule:nonzero;stroke:none;stroke-width:2;stroke-linecap:butt;stroke-linejoin:round;marker:none;marker-start:none;marker-mid:none;marker-end:none;stroke-miterlimit:4;stroke-dasharray:none;stroke-dashoffset:0;stroke-opacity:1;visibility:visible;display:inline;overflow:visible;enable-background:accumulate"
       id="rect2395"
       width="480"
       height="640"
       x="0"
       y="0" />
    <rect
       style="opacity:1;fill:#647d8a;fill-opacity:1;fill-rule:nonzero;stroke:none;stroke-width:2;stroke-linecap:butt;stroke-linejoin:round;marker:none;marker-start:none;marker-mid:none;marker-end:none;stroke-miterlimit:4;stroke-dasharray:none;stroke-dashoffset:0;stroke-opacity:1;visibility:visible;display:inline;overflow:visible;enable-background:accumulate;color:#000000"
       id="rect2393"
       width="320"
       height="620"
       x="10"
       y="10" />
    <path
       style="opacity:0.80000000000000004;fill:url(#linearGradient3189);fill-opacity:1;fill-rule:nonzero;stroke:none;stroke-width:2;stroke-linecap:butt;stroke-linejoin:round;marker:none;marker-start:none;marker-mid:none;marker-end:none;stroke-miterlimit:4;stroke-dasharray:none;stroke-dashoffset:0;stroke-opacity:1;visibility:visible;display:inline;overflow:visible;enable-background:accumulate"
       d="M 352.375 10 C 345.52196 10 340 15.521959 340 22.375 L 340 125.625 C 340 132.47804 345.52195 138 352.375 138 L 396.0625 138 L 396.0625 120.9375 L 401.03125 120.9375 L 407.5 130.4375 L 407.5 120.9375 L 412.5 120.9375 L 412.5 138 L 416.03125 138 L 416.03125 120.9375 L 430.25 120.9375 L 430.25 124.59375 L 421.34375 124.59375 L 421.34375 127.34375 L 429.625 127.34375 L 429.625 130.84375 L 421.34375 130.84375 L 421.34375 134.21875 L 430.53125 134.21875 L 430.53125 138 L 431.75 138 L 437.59375 129.15625 L 432.21875 120.9375 L 438.0625 120.9375 L 441.09375 126.21875 L 444.0625 120.9375 L 449.84375 120.9375 L 444.5 129.25 L 450.25 138 L 456.25 138 L 456.25 125.1875 L 450.84375 125.1875 L 450.84375 120.9375 L 466.96875 120.9375 L 466.96875 125.1875 L 461.5625 125.1875 L 461.5625 137.34375 C 466.47291 135.70603 470 131.0998 470 125.625 L 470 22.375 C 470 15.521959 464.47805 10 457.625 10 L 352.375 10 z M 401.0625 128.6875 L 401.0625 138 L 407.40625 138 L 401.0625 128.6875 z M 441 132.59375 L 437.65625 138 L 444.3125 138 L 441 132.59375 z "
       id="rect3167" />
    <path
       style="opacity:0.80000000000000004;fill:url(#linearGradient3192);fill-opacity:1;fill-rule:nonzero;stroke:none;stroke-width:2;stroke-linecap:butt;stroke-linejoin:round;marker:none;marker-start:none;marker-mid:none;marker-end:none;stroke-miterlimit:4;stroke-dasharray:none;stroke-dashoffset:0;stroke-opacity:1;visibility:visible;display:inline;overflow:visible;enable-background:accumulate;color:#000000"
       d="M 351.1875 148 C 344.9956 148 340 152.9956 340 159.1875 L 340 200.8125 C 340 207.0044 344.99561 212 351.1875 212 L 380.1875 212 C 379.47233 211.73206 378.90888 211.37764 378.46875 210.9375 C 377.34375 209.8125 376.71094 208.39063 376.5625 206.65625 L 381.59375 206.34375 C 381.70312 207.16407 381.94531 207.78907 382.28125 208.21875 C 382.82812 208.91407 383.60937 209.25 384.625 209.25 C 385.3828 209.25 385.93749 209.07032 386.34375 208.71875 C 386.7578 208.35938 386.96874 207.96875 386.96875 207.5 C 386.96874 207.05469 386.79686 206.63282 386.40625 206.28125 C 386.01561 205.92969 385.10937 205.62501 383.6875 205.3125 C 381.35937 204.78907 379.67968 204.08595 378.6875 203.21875 C 377.6875 202.35157 377.1875 201.25001 377.1875 199.90625 C 377.1875 199.02345 377.46094 198.18751 377.96875 197.40625 C 378.48437 196.6172 379.22656 196.00783 380.25 195.5625 C 381.28124 195.10939 382.71093 194.87502 384.5 194.875 C 386.6953 194.87502 388.35155 195.27345 389.5 196.09375 C 390.65624 196.90627 391.34373 198.21876 391.5625 200 L 386.5625 200.28125 C 386.42968 199.50783 386.14843 198.94533 385.71875 198.59375 C 385.29687 198.2422 384.71874 198.06251 383.96875 198.0625 C 383.35155 198.06251 382.87499 198.20314 382.5625 198.46875 C 382.24999 198.72658 382.09374 199.03126 382.09375 199.40625 C 382.09374 199.6797 382.24218 199.93751 382.5 200.15625 C 382.74999 200.38282 383.34374 200.58595 384.28125 200.78125 C 386.60155 201.28126 388.24999 201.79689 389.25 202.3125 C 390.2578 202.82032 390.98436 203.46095 391.4375 204.21875 C 391.89842 204.97657 392.12498 205.81251 392.125 206.75 C 392.12498 207.85157 391.82811 208.88282 391.21875 209.8125 C 390.60936 210.74219 389.74999 211.42188 388.65625 211.90625 C 388.57768 211.94048 388.48776 211.96823 388.40625 212 L 398.96875 212 C 398.8259 211.94598 398.66542 211.90466 398.53125 211.84375 C 397.35156 211.29688 396.35937 210.33594 395.5 208.96875 C 394.64062 207.60157 394.1875 205.85157 394.1875 203.71875 C 394.1875 200.87501 394.96094 198.6797 396.46875 197.15625 C 397.98437 195.62502 400.10937 194.87502 402.875 194.875 C 405.03905 194.87502 406.73436 195.31252 407.96875 196.1875 C 409.21092 197.06252 410.14842 198.40626 410.75 200.21875 L 406.0625 201.25 C 405.89842 200.72657 405.71092 200.33595 405.53125 200.09375 C 405.23436 199.68751 404.86718 199.37501 404.4375 199.15625 C 404.0078 198.93751 403.53124 198.84376 403 198.84375 C 401.79687 198.84376 400.89062 199.31251 400.25 200.28125 C 399.76562 201.00001 399.53124 202.14845 399.53125 203.6875 C 399.53124 205.59376 399.79687 206.88282 400.375 207.59375 C 400.95312 208.29688 401.76562 208.65625 402.8125 208.65625 C 403.82811 208.65625 404.60936 208.38282 405.125 207.8125 C 405.64842 207.24219 406.01561 206.39844 406.25 205.3125 L 410.90625 206.71875 C 410.59373 208.02344 410.10936 209.125 409.4375 210 C 408.76561 210.875 407.93749 211.52344 406.9375 211.96875 C 406.90937 211.98137 406.87232 211.98773 406.84375 212 L 417.78125 212 C 417.53944 211.91126 417.28419 211.82619 417.0625 211.71875 C 415.79687 211.10156 414.78906 210.11719 414 208.78125 C 413.21094 207.44532 412.8125 205.75782 412.8125 203.75 C 412.8125 200.94532 413.59375 198.78126 415.15625 197.21875 C 416.71875 195.65627 418.89843 194.87502 421.6875 194.875 C 424.54686 194.87502 426.73436 195.64845 428.28125 197.1875 C 429.82811 198.71876 430.59373 200.85939 430.59375 203.625 C 430.59373 205.63282 430.27342 207.27344 429.59375 208.5625 C 428.92186 209.84375 427.93748 210.84375 426.65625 211.5625 C 426.35802 211.72899 426.05168 211.8725 425.71875 212 L 433.5625 212 L 433.5625 195.15625 L 442.40625 195.15625 C 444.04686 195.15627 445.28905 195.31252 446.15625 195.59375 C 447.02342 195.87502 447.74998 196.39064 448.28125 197.15625 C 448.81248 197.91408 449.06248 198.84376 449.0625 199.9375 C 449.06248 200.89064 448.87498 201.71095 448.46875 202.40625 C 448.06248 203.09376 447.49217 203.66407 446.78125 204.09375 C 446.32811 204.3672 445.6953 204.57032 444.90625 204.75 C 445.53905 204.96094 446.02342 205.19532 446.3125 205.40625 C 446.5078 205.54688 446.78905 205.82032 447.15625 206.28125 C 447.53123 206.74219 447.78123 207.12501 447.90625 207.375 L 450.28125 212 L 452.125 212 L 452.125 195.15625 L 466.375 195.15625 L 466.375 198.84375 L 457.46875 198.84375 L 457.46875 201.5625 L 465.71875 201.5625 L 465.71875 205.0625 L 457.46875 205.0625 L 457.46875 208.4375 L 466.625 208.4375 L 466.625 208.8125 C 468.70003 206.78556 470 203.95582 470 200.8125 L 470 159.1875 C 470 152.9956 465.00439 148 458.8125 148 L 351.1875 148 z M 438.90625 198.625 L 438.90625 202.125 L 441.125 202.125 C 441.36718 202.12501 441.83593 202.03126 442.53125 201.875 C 442.8828 201.8047 443.18749 201.63282 443.40625 201.34375 C 443.6328 201.0547 443.71874 200.71876 443.71875 200.34375 C 443.71874 199.78908 443.5703 199.35939 443.21875 199.0625 C 442.86718 198.76564 442.18749 198.62501 441.21875 198.625 L 438.90625 198.625 z M 421.65625 198.875 C 420.58593 198.87501 419.74218 199.27345 419.09375 200.03125 C 418.44531 200.78907 418.12499 202.03126 418.125 203.78125 C 418.12499 205.51563 418.42187 206.77344 419.0625 207.53125 C 419.71093 208.28907 420.60937 208.65625 421.71875 208.65625 C 422.85936 208.65625 423.74999 208.30469 424.375 207.5625 C 424.99999 206.82032 425.31249 205.48438 425.3125 203.5625 C 425.31249 201.94532 424.96874 200.7422 424.3125 200 C 423.66405 199.25001 422.77343 198.87501 421.65625 198.875 z M 438.90625 205.375 L 438.90625 212 L 444.28125 212 L 441.625 207.09375 C 441.26562 206.41407 440.93749 205.98438 440.65625 205.78125 C 440.27343 205.51563 439.85937 205.37501 439.375 205.375 L 438.90625 205.375 z "
       id="rect3169" />
    <path
       style="opacity:0.80000000000000004;fill:url(#linearGradient3179);fill-opacity:1;fill-rule:nonzero;stroke:none;stroke-width:2;stroke-linecap:butt;stroke-linejoin:round;marker:none;marker-start:none;marker-mid:none;marker-end:none;stroke-miterlimit:4;stroke-dasharray:none;stroke-dashoffset:0;stroke-opacity:1;visibility:visible;display:inline;overflow:visible;enable-background:accumulate;color:#000000"
       d="M 351.1875 222 C 344.9956 222 340 226.9956 340 233.1875 L 340 274.8125 C 340 281.0044 344.99561 286 351.1875 286 L 389.25 286 L 389.25 269.375 L 394.5625 269.375 L 394.5625 282.3125 L 402.84375 282.3125 L 402.84375 286 L 405.46875 286 L 405.46875 269.375 L 410.8125 269.375 L 410.8125 286 L 414.625 286 L 414.625 269.375 L 419.59375 269.375 L 426.0625 278.875 L 426.0625 269.375 L 431.0625 269.375 L 431.0625 286 L 434.59375 286 L 434.59375 269.375 L 448.84375 269.375 L 448.84375 273.03125 L 439.9375 273.03125 L 439.9375 275.78125 L 448.1875 275.78125 L 448.1875 279.28125 L 439.9375 279.28125 L 439.9375 282.65625 L 449.09375 282.65625 L 449.09375 286 L 454.1875 286 C 453.70275 285.76677 453.26757 285.48632 452.9375 285.15625 C 451.8125 284.03125 451.17969 282.60938 451.03125 280.875 L 456.09375 280.5625 C 456.20312 281.38282 456.41406 282.00782 456.75 282.4375 C 457.29687 283.13282 458.07812 283.46875 459.09375 283.46875 C 459.85155 283.46875 460.43749 283.28907 460.84375 282.9375 C 461.2578 282.57813 461.46874 282.15625 461.46875 281.6875 C 461.46874 281.24219 461.26561 280.85157 460.875 280.5 C 460.48436 280.14844 459.57812 279.81251 458.15625 279.5 C 455.82812 278.97657 454.17968 278.27345 453.1875 277.40625 C 452.1875 276.53907 451.6875 275.43751 451.6875 274.09375 C 451.6875 273.21095 451.92969 272.37501 452.4375 271.59375 C 452.95312 270.8047 453.72656 270.19533 454.75 269.75 C 455.78124 269.29689 457.17968 269.06252 458.96875 269.0625 C 461.16405 269.06252 462.85155 269.4922 464 270.3125 C 465.15624 271.12502 465.84373 272.40626 466.0625 274.1875 L 461.0625 274.5 C 460.92968 273.72658 460.64843 273.16408 460.21875 272.8125 C 459.79687 272.46095 459.18749 272.28126 458.4375 272.28125 C 457.8203 272.28126 457.37499 272.42189 457.0625 272.6875 C 456.74999 272.94533 456.59374 273.25001 456.59375 273.625 C 456.59374 273.89845 456.71093 274.15626 456.96875 274.375 C 457.21874 274.60157 457.81249 274.8047 458.75 275 C 461.0703 275.50001 462.74999 276.01564 463.75 276.53125 C 464.7578 277.03907 465.48436 277.64845 465.9375 278.40625 C 466.39842 279.16407 466.62498 280.03126 466.625 280.96875 C 466.62499 281.81866 466.42524 282.59616 466.0625 283.34375 C 468.46715 281.29681 470 278.23228 470 274.8125 L 470 233.1875 C 470 226.9956 465.00439 222 458.8125 222 L 351.1875 222 z M 419.625 277.125 L 419.625 286 L 425.6875 286 L 419.625 277.125 z "
       id="rect3171" />
    <path
       style="opacity:0.80000000000000004;fill:url(#linearGradient3208);fill-opacity:1;fill-rule:nonzero;stroke:none;stroke-width:2;stroke-linecap:butt;stroke-linejoin:round;marker:none;marker-start:none;marker-mid:none;marker-end:none;stroke-miterlimit:4;stroke-dasharray:none;stroke-dashoffset:0;stroke-opacity:1;visibility:visible;display:inline;overflow:visible;enable-background:accumulate"
       d="M 352.375 10 C 345.52196 10 340 15.521959 340 22.375 L 340 125.625 C 340 132.47804 345.52195 138 352.375 138 L 396.0625 138 L 396.0625 120.9375 L 401.03125 120.9375 L 407.5 130.4375 L 407.5 120.9375 L 412.5 120.9375 L 412.5 138 L 416.03125 138 L 416.03125 120.9375 L 430.25 120.9375 L 430.25 124.59375 L 421.34375 124.59375 L 421.34375 127.34375 L 429.625 127.34375 L 429.625 130.84375 L 421.34375 130.84375 L 421.34375 134.21875 L 430.53125 134.21875 L 430.53125 138 L 431.75 138 L 437.59375 129.15625 L 432.21875 120.9375 L 438.0625 120.9375 L 441.09375 126.21875 L 444.0625 120.9375 L 449.84375 120.9375 L 444.5 129.25 L 450.25 138 L 456.25 138 L 456.25 125.1875 L 450.84375 125.1875 L 450.84375 120.9375 L 466.96875 120.9375 L 466.96875 125.1875 L 461.5625 125.1875 L 461.5625 137.34375 C 466.47291 135.70603 470 131.0998 470 125.625 L 470 22.375 C 470 15.521959 464.47805 10 457.625 10 L 352.375 10 z M 401.0625 128.6875 L 401.0625 138 L 407.40625 138 L 401.0625 128.6875 z M 441 132.59375 L 437.65625 138 L 444.3125 138 L 441 132.59375 z "
       id="path3196" />
    <path
       style="opacity:0.80000000000000004;fill:url(#linearGradient3216);fill-opacity:1;fill-rule:nonzero;stroke:none;stroke-width:2;stroke-linecap:butt;stroke-linejoin:round;marker:none;marker-start:none;marker-mid:none;marker-end:none;stroke-miterlimit:4;stroke-dasharray:none;stroke-dashoffset:0;stroke-opacity:1;visibility:visible;display:inline;overflow:visible;enable-background:accumulate;color:#000000"
       d="M 351.1875 148 C 344.9956 148 340 152.9956 340 159.1875 L 340 200.8125 C 340 207.0044 344.99561 212 351.1875 212 L 380.1875 212 C 379.47233 211.73206 378.90888 211.37764 378.46875 210.9375 C 377.34375 209.8125 376.71094 208.39063 376.5625 206.65625 L 381.59375 206.34375 C 381.70312 207.16407 381.94531 207.78907 382.28125 208.21875 C 382.82812 208.91407 383.60937 209.25 384.625 209.25 C 385.3828 209.25 385.93749 209.07032 386.34375 208.71875 C 386.7578 208.35938 386.96874 207.96875 386.96875 207.5 C 386.96874 207.05469 386.79686 206.63282 386.40625 206.28125 C 386.01561 205.92969 385.10937 205.62501 383.6875 205.3125 C 381.35937 204.78907 379.67968 204.08595 378.6875 203.21875 C 377.6875 202.35157 377.1875 201.25001 377.1875 199.90625 C 377.1875 199.02345 377.46094 198.18751 377.96875 197.40625 C 378.48437 196.6172 379.22656 196.00783 380.25 195.5625 C 381.28124 195.10939 382.71093 194.87502 384.5 194.875 C 386.6953 194.87502 388.35155 195.27345 389.5 196.09375 C 390.65624 196.90627 391.34373 198.21876 391.5625 200 L 386.5625 200.28125 C 386.42968 199.50783 386.14843 198.94533 385.71875 198.59375 C 385.29687 198.2422 384.71874 198.06251 383.96875 198.0625 C 383.35155 198.06251 382.87499 198.20314 382.5625 198.46875 C 382.24999 198.72658 382.09374 199.03126 382.09375 199.40625 C 382.09374 199.6797 382.24218 199.93751 382.5 200.15625 C 382.74999 200.38282 383.34374 200.58595 384.28125 200.78125 C 386.60155 201.28126 388.24999 201.79689 389.25 202.3125 C 390.2578 202.82032 390.98436 203.46095 391.4375 204.21875 C 391.89842 204.97657 392.12498 205.81251 392.125 206.75 C 392.12498 207.85157 391.82811 208.88282 391.21875 209.8125 C 390.60936 210.74219 389.74999 211.42188 388.65625 211.90625 C 388.57768 211.94048 388.48776 211.96823 388.40625 212 L 398.96875 212 C 398.8259 211.94598 398.66542 211.90466 398.53125 211.84375 C 397.35156 211.29688 396.35937 210.33594 395.5 208.96875 C 394.64062 207.60157 394.1875 205.85157 394.1875 203.71875 C 394.1875 200.87501 394.96094 198.6797 396.46875 197.15625 C 397.98437 195.62502 400.10937 194.87502 402.875 194.875 C 405.03905 194.87502 406.73436 195.31252 407.96875 196.1875 C 409.21092 197.06252 410.14842 198.40626 410.75 200.21875 L 406.0625 201.25 C 405.89842 200.72657 405.71092 200.33595 405.53125 200.09375 C 405.23436 199.68751 404.86718 199.37501 404.4375 199.15625 C 404.0078 198.93751 403.53124 198.84376 403 198.84375 C 401.79687 198.84376 400.89062 199.31251 400.25 200.28125 C 399.76562 201.00001 399.53124 202.14845 399.53125 203.6875 C 399.53124 205.59376 399.79687 206.88282 400.375 207.59375 C 400.95312 208.29688 401.76562 208.65625 402.8125 208.65625 C 403.82811 208.65625 404.60936 208.38282 405.125 207.8125 C 405.64842 207.24219 406.01561 206.39844 406.25 205.3125 L 410.90625 206.71875 C 410.59373 208.02344 410.10936 209.125 409.4375 210 C 408.76561 210.875 407.93749 211.52344 406.9375 211.96875 C 406.90937 211.98137 406.87232 211.98773 406.84375 212 L 417.78125 212 C 417.53944 211.91126 417.28419 211.82619 417.0625 211.71875 C 415.79687 211.10156 414.78906 210.11719 414 208.78125 C 413.21094 207.44532 412.8125 205.75782 412.8125 203.75 C 412.8125 200.94532 413.59375 198.78126 415.15625 197.21875 C 416.71875 195.65627 418.89843 194.87502 421.6875 194.875 C 424.54686 194.87502 426.73436 195.64845 428.28125 197.1875 C 429.82811 198.71876 430.59373 200.85939 430.59375 203.625 C 430.59373 205.63282 430.27342 207.27344 429.59375 208.5625 C 428.92186 209.84375 427.93748 210.84375 426.65625 211.5625 C 426.35802 211.72899 426.05168 211.8725 425.71875 212 L 433.5625 212 L 433.5625 195.15625 L 442.40625 195.15625 C 444.04686 195.15627 445.28905 195.31252 446.15625 195.59375 C 447.02342 195.87502 447.74998 196.39064 448.28125 197.15625 C 448.81248 197.91408 449.06248 198.84376 449.0625 199.9375 C 449.06248 200.89064 448.87498 201.71095 448.46875 202.40625 C 448.06248 203.09376 447.49217 203.66407 446.78125 204.09375 C 446.32811 204.3672 445.6953 204.57032 444.90625 204.75 C 445.53905 204.96094 446.02342 205.19532 446.3125 205.40625 C 446.5078 205.54688 446.78905 205.82032 447.15625 206.28125 C 447.53123 206.74219 447.78123 207.12501 447.90625 207.375 L 450.28125 212 L 452.125 212 L 452.125 195.15625 L 466.375 195.15625 L 466.375 198.84375 L 457.46875 198.84375 L 457.46875 201.5625 L 465.71875 201.5625 L 465.71875 205.0625 L 457.46875 205.0625 L 457.46875 208.4375 L 466.625 208.4375 L 466.625 208.8125 C 468.70003 206.78556 470 203.95582 470 200.8125 L 470 159.1875 C 470 152.9956 465.00439 148 458.8125 148 L 351.1875 148 z M 438.90625 198.625 L 438.90625 202.125 L 441.125 202.125 C 441.36718 202.12501 441.83593 202.03126 442.53125 201.875 C 442.8828 201.8047 443.18749 201.63282 443.40625 201.34375 C 443.6328 201.0547 443.71874 200.71876 443.71875 200.34375 C 443.71874 199.78908 443.5703 199.35939 443.21875 199.0625 C 442.86718 198.76564 442.18749 198.62501 441.21875 198.625 L 438.90625 198.625 z M 421.65625 198.875 C 420.58593 198.87501 419.74218 199.27345 419.09375 200.03125 C 418.44531 200.78907 418.12499 202.03126 418.125 203.78125 C 418.12499 205.51563 418.42187 206.77344 419.0625 207.53125 C 419.71093 208.28907 420.60937 208.65625 421.71875 208.65625 C 422.85936 208.65625 423.74999 208.30469 424.375 207.5625 C 424.99999 206.82032 425.31249 205.48438 425.3125 203.5625 C 425.31249 201.94532 424.96874 200.7422 424.3125 200 C 423.66405 199.25001 422.77343 198.87501 421.65625 198.875 z M 438.90625 205.375 L 438.90625 212 L 444.28125 212 L 441.625 207.09375 C 441.26562 206.41407 440.93749 205.98438 440.65625 205.78125 C 440.27343 205.51563 439.85937 205.37501 439.375 205.375 L 438.90625 205.375 z "
       id="path3198" />
    <path
       style="opacity:0.80000000000000004;fill:url(#linearGradient3224);fill-opacity:1;fill-rule:nonzero;stroke:none;stroke-width:2;stroke-linecap:butt;stroke-linejoin:round;marker:none;marker-start:none;marker-mid:none;marker-end:none;stroke-miterlimit:4;stroke-dasharray:none;stroke-dashoffset:0;stroke-opacity:1;visibility:visible;display:inline;overflow:visible;enable-background:accumulate;color:#000000"
       d="M 351.1875 222 C 344.9956 222 340 226.9956 340 233.1875 L 340 274.8125 C 340 281.0044 344.99561 286 351.1875 286 L 389.25 286 L 389.25 269.375 L 394.5625 269.375 L 394.5625 282.3125 L 402.84375 282.3125 L 402.84375 286 L 405.46875 286 L 405.46875 269.375 L 410.8125 269.375 L 410.8125 286 L 414.625 286 L 414.625 269.375 L 419.59375 269.375 L 426.0625 278.875 L 426.0625 269.375 L 431.0625 269.375 L 431.0625 286 L 434.59375 286 L 434.59375 269.375 L 448.84375 269.375 L 448.84375 273.03125 L 439.9375 273.03125 L 439.9375 275.78125 L 448.1875 275.78125 L 448.1875 279.28125 L 439.9375 279.28125 L 439.9375 282.65625 L 449.09375 282.65625 L 449.09375 286 L 454.1875 286 C 453.70275 285.76677 453.26757 285.48632 452.9375 285.15625 C 451.8125 284.03125 451.17969 282.60938 451.03125 280.875 L 456.09375 280.5625 C 456.20312 281.38282 456.41406 282.00782 456.75 282.4375 C 457.29687 283.13282 458.07812 283.46875 459.09375 283.46875 C 459.85155 283.46875 460.43749 283.28907 460.84375 282.9375 C 461.2578 282.57813 461.46874 282.15625 461.46875 281.6875 C 461.46874 281.24219 461.26561 280.85157 460.875 280.5 C 460.48436 280.14844 459.57812 279.81251 458.15625 279.5 C 455.82812 278.97657 454.17968 278.27345 453.1875 277.40625 C 452.1875 276.53907 451.6875 275.43751 451.6875 274.09375 C 451.6875 273.21095 451.92969 272.37501 452.4375 271.59375 C 452.95312 270.8047 453.72656 270.19533 454.75 269.75 C 455.78124 269.29689 457.17968 269.06252 458.96875 269.0625 C 461.16405 269.06252 462.85155 269.4922 464 270.3125 C 465.15624 271.12502 465.84373 272.40626 466.0625 274.1875 L 461.0625 274.5 C 460.92968 273.72658 460.64843 273.16408 460.21875 272.8125 C 459.79687 272.46095 459.18749 272.28126 458.4375 272.28125 C 457.8203 272.28126 457.37499 272.42189 457.0625 272.6875 C 456.74999 272.94533 456.59374 273.25001 456.59375 273.625 C 456.59374 273.89845 456.71093 274.15626 456.96875 274.375 C 457.21874 274.60157 457.81249 274.8047 458.75 275 C 461.0703 275.50001 462.74999 276.01564 463.75 276.53125 C 464.7578 277.03907 465.48436 277.64845 465.9375 278.40625 C 466.39842 279.16407 466.62498 280.03126 466.625 280.96875 C 466.62499 281.81866 466.42524 282.59616 466.0625 283.34375 C 468.46715 281.29681 470 278.23228 470 274.8125 L 470 233.1875 C 470 226.9956 465.00439 222 458.8125 222 L 351.1875 222 z M 419.625 277.125 L 419.625 286 L 425.6875 286 L 419.625 277.125 z "
       id="path3200" />
    <path
       style="font-size:90.66790771000000859px;font-style:normal;font-variant:normal;font-weight:normal;font-stretch:normal;fill:#4d4d4d;fill-opacity:1;stroke:#bcdbf4;stroke-width:2;stroke-linecap:butt;stroke-linejoin:miter;stroke-opacity:1;font-family:Arial Black;-inkscape-font-specification:Arial Black;stroke-miterlimit:4;stroke-dasharray:none"
       d="M 340.67162,298.88733 L 340.67162,310.21259 L 382.49389,310.21259 L 382.49389,344.83348 L 423.48759,344.83348 L 423.48759,310.21259 L 465.34931,310.21259 L 465.34931,298.88733 L 340.67162,298.88733 z M 383.48026,354.00838 L 383.48026,399.95453 L 424.59233,399.95453 L 424.59233,354.00838 L 383.48026,354.00838 z M 340.67162,409.0219 L 340.67162,420.34717 L 382.49389,420.34717 L 382.49389,454.96806 L 423.48759,454.96806 L 423.48759,420.34717 L 465.34931,420.34717 L 465.34931,409.0219 L 340.67162,409.0219 z M 340.39544,465.8274 L 340.39544,511.77356 L 381.58642,511.77356 L 381.58642,493.10121 L 385.21628,493.10121 C 388.95873,493.10124 392.27999,493.46597 395.23784,494.1764 C 397.41084,494.7197 399.91803,495.90657 402.69483,497.7245 L 424.59233,511.77356 L 470.95192,511.77356 L 451.10607,498.44129 C 450.14014,497.77264 448.20348,496.80698 445.30619,495.57413 C 442.46901,494.34131 440.30509,493.54903 438.79612,493.17289 C 436.56258,492.60873 432.99315,492.05264 428.10383,491.48844 C 434.20039,491.00786 439.0037,490.39201 442.50489,489.66063 C 447.99781,488.51139 452.3071,487.01954 455.44612,485.1807 C 458.58486,483.32102 460.18058,481.09969 460.18071,478.5504 C 460.18057,475.62506 458.13028,473.15855 454.02574,471.13164 C 449.92092,469.08391 444.50992,467.69072 437.80975,466.93843 C 431.10933,466.18623 421.40763,465.82744 408.73144,465.8274 L 340.39544,465.8274 z M 381.58642,475.07398 L 399.57789,475.07398 C 407.06284,475.07401 412.16999,475.49853 414.88641,476.29252 C 417.60267,477.08658 418.98961,478.21372 418.98973,479.69726 C 418.98964,480.70029 418.09667,481.57628 416.34625,482.34938 C 414.65598,483.12255 412.47352,483.59493 409.75727,483.78296 C 404.38486,484.2009 400.73888,484.4281 398.8677,484.42807 L 381.58642,484.42807 L 381.58642,475.07398 z M 341.10563,521.77276 L 341.10563,549.18992 C 341.10562,551.44667 342.35802,554.04172 344.89331,556.96708 C 346.46273,558.78501 349.38738,560.52208 353.61285,562.23548 C 357.89861,563.94892 362.60683,565.27338 367.73773,566.21365 C 372.86855,567.13306 379.22813,567.76386 386.83393,568.0773 C 394.49999,568.39074 401.56233,568.54324 408.02125,568.54322 C 419.18834,568.54322 428.73695,568.02598 436.70501,567.00212 C 442.4394,566.27078 447.92693,565.00019 453.11827,563.20314 C 458.36973,561.38523 462.18501,559.29839 464.59967,556.8954 C 467.07442,554.47152 468.30828,551.90638 468.30843,549.18992 L 468.30843,521.77276 L 427.39364,521.77276 L 427.39364,549.83503 C 427.39353,552.38431 425.36181,554.34854 421.31757,555.74854 C 417.33352,557.12766 411.80891,557.82723 404.74649,557.82723 C 397.62356,557.82724 392.06184,557.11273 388.01758,555.7127 C 384.03355,554.29181 382.02036,552.34254 382.02043,549.83503 L 382.02043,521.77276 L 341.10563,521.77276 z M 406.95596,576.96548 C 393.13274,576.96553 382.21571,577.58142 374.2478,578.79329 C 366.34019,579.98439 360.39811,581.62873 356.41416,583.73914 C 352.49054,585.82874 350.53537,588.04411 350.53537,590.40527 C 350.53535,593.99935 354.40862,596.97408 362.13513,599.29345 C 369.80122,601.61289 382.61543,603.4486 400.60372,604.84856 C 411.58974,605.68441 418.61496,606.59623 421.63321,607.53652 C 424.65128,608.47684 426.13099,609.53515 426.13108,610.72623 C 426.13099,611.97998 424.55619,613.09812 421.35703,614.0593 C 418.21807,614.99961 413.71857,615.45703 407.86343,615.45703 C 400.01616,615.45704 393.97896,614.5213 389.7536,612.66156 C 387.15793,611.51231 385.43002,609.83809 384.585,607.64404 L 345.56404,608.50418 C 346.71094,613.14302 351.62787,616.96383 360.3202,619.9728 C 369.01246,622.98178 384.65628,624.48856 407.23215,624.48857 C 420.08943,624.48857 430.73974,623.8637 439.19067,622.58908 C 447.64141,621.29355 454.2097,619.37721 458.91815,616.89061 C 463.62636,614.40404 465.98046,611.70135 465.98059,608.75506 C 465.98046,606.24761 464.21548,603.97245 460.65417,601.94557 C 457.15299,599.91872 451.51475,598.21461 443.72799,596.85637 C 436.00141,595.47729 423.14771,594.14384 405.21995,592.80651 C 397.9763,592.28415 393.38173,591.72807 391.45016,591.12206 C 389.45812,590.53701 388.49099,589.8464 388.49104,589.11505 C 388.49099,588.1121 389.66685,587.2959 392.08144,586.60629 C 394.49591,585.89588 398.12334,585.53114 402.8921,585.53111 C 408.68689,585.53114 413.20491,585.98856 416.46461,586.92885 C 419.78451,587.86918 421.94843,589.37595 422.97468,591.44461 L 461.64054,590.65615 C 459.95026,585.89198 454.63437,582.43586 445.70074,580.26271 C 436.82726,578.06872 423.91794,576.96551 406.95596,576.96548 z"
       id="text3226" />
  </g>
</svg>
